<svg xmlns="http://www.w3.org/2000/svg" width="2235.926" height="327.877" viewBox="0 0 2235.926 327.877"><path fill="#E5D17C" d="M25.033 45.986l17.36 7.971v9.791l-17.357 7.975-.003-25.737zm50.072 2.821l17.357-7.975v-9.79l-17.36-7.971.003 25.736zm91.791 144.132l83.454-22.166-17.36-7.971-83.455 22.167 17.361 7.97zm-83.442 23.989l41.721 19.158-41.721-19.158zm41.719 19.158v-16.062l-24.359-11.205-17.359 8.067 41.718 19.2zm-41.719-19.158l41.721 19.158-41.721-19.158z"/><path fill="#D9C873" d="M83.453 130.911l17.36 8.108v69.8l-17.359 8.067-.001-85.975zm83.443 62.018v23.958l-41.721 19.158-41.721-19.158v-85.976l41.721-19.158 41.721 19.158v29.097l83.455-22.167v-80.36l-25.037-11.495v25.736l-25.03-11.5V34.491l-25.036-11.495v25.812l-25.036-11.495V11.495L125.175 0l-25.036 11.495v25.817L75.103 48.807V22.996L50.066 34.491v25.731l-25.03 11.5V45.986L0 57.481v212.915l125.175 57.481 125.176-57.481v-99.634l-83.455 22.167z"/><path fill="#C6B56F" d="M166.897 130.911l-17.36 8.108-24.509-11.275.148-15.992 41.721 19.159zm-.001 0l-41.721-19.158 41.721 19.158zm0 0l-41.721-19.158 41.721 19.158zm-41.721 105.175l41.721-19.158-41.721 19.158zm41.721-19.199l-17.358-8.067-24.36 11.205v16.062l41.718-19.2zm-41.721 19.199l41.721-19.158-41.721 19.158zM83.454 130.911l41.721-19.158V0l-25.036 11.495v25.817L75.103 48.807V22.996L50.066 34.491v25.731l-25.03 11.5V45.986L0 57.481v212.915l125.175 57.481v-91.832l-41.721-19.158v-85.976z"/><path fill="#998C53" d="M225.314 71.722l-17.357-7.975v-9.791l17.36-7.971-.003 25.737zm-50.067-48.651l-17.36 7.971v9.79l17.357 7.975.003-25.736zm-8.352 136.945l.001-29.105-17.36 8.108v13.026l17.359 7.971zm.001 32.923l-17.36-7.971v23.851l17.359 8.067.001-23.947zm-41.721-81.186l-41.721 19.158 41.721-19.158zm-41.722 19.158l17.36 8.108 24.359-11.206v-16.061l-41.719 19.159zm41.722-19.158l-41.721 19.158 41.721-19.158z"/><g><path fill="#D9C873" d="M388.065 202.259c-9.027 7.257-20.709 11.505-33.276 11.505-29.914 0-54.34-24.249-54.34-54.339s24.426-54.339 54.34-54.339c12.567 0 23.895 4.248 33.276 11.328 0 7.257.531 22.833.531 32.037h-4.248c-1.77-9.204-13.275-20.532-29.559-20.532-17.347 0-31.507 14.16-31.507 31.506s14.16 31.506 31.507 31.506c16.284 0 27.966-10.089 29.559-20.355h4.248l-.531 31.683zm147.617 9.204c-2.832 0-6.372-.354-8.496-.354h-24.249l-41.064-41.064h-2.124v28.674c0 6.903 1.77 7.965 6.726 8.496h1.239l.885 4.248h-1.416c-2.832 0-6.372-.354-8.496-.354H436.03c-2.124 0-5.664.354-8.496.354h-1.416l.885-4.248h1.239c4.956-.531 6.726-1.593 6.726-8.496V120.13c0-6.903-1.77-7.965-6.726-8.496h-1.239l-.885-4.248h1.416c2.832 0 6.372.354 8.496.354h22.656c2.124 0 8.496-.354 10.974-.354 17.346 0 31.329 13.983 31.329 31.152 0 10.443-4.956 19.47-12.567 25.134l34.87 35.046c7.611 7.434 8.496 8.142 11.682 8.496.531.177 1.239 0 1.239 0l1.062 4.248h-1.593zm-69.916-86.377h-6.018v26.904h6.018c7.257 0 13.452-6.018 13.452-13.452 0-7.256-6.195-13.452-13.452-13.452zm210.983-13.452h-1.416c-4.956.531-6.549 1.593-6.549 8.496v39.294c0 30.09-24.427 54.339-54.34 54.339-30.09 0-54.517-24.249-54.517-54.339V120.13c0-6.903-1.593-7.965-6.549-8.496h-1.239l-1.062-4.248h1.593c2.832 0 6.372.354 8.496.354h22.656c2.124 0 5.664-.354 8.496-.354h1.593l-1.062 4.248h-1.239c-4.956.531-6.727 1.593-6.727 8.496v38.94c0 16.284 13.275 29.56 29.56 29.56s29.382-13.275 29.382-29.56v-38.94c0-6.903-1.77-7.965-6.726-8.496h-1.239l-.885-4.248h1.416c2.832 0 6.372.354 8.496.354h22.656c2.124 0 5.664-.354 8.496-.354h1.593l-.883 4.248zm74.16 101.953c-12.567 0-23.188-3.894-30.444-12.744 0-5.133-.177-20.178-.177-25.312l4.425-.177c3.54 11.505 13.098 16.992 23.188 16.992 6.726 0 11.682-3.717 11.682-8.673 0-5.311-3.009-8.496-9.912-12.213l-11.151-6.726c-12.744-7.611-17.7-16.284-17.7-28.852 0-15.753 10.62-30.09 33.099-30.09 10.443 0 17.7 2.655 22.833 6.549 0 6.726-.177 13.452-.177 22.302l-3.894.885c-2.124-6.195-7.965-10.797-16.107-10.797-6.726 0-12.213 3.54-12.213 8.85 0 4.248 1.77 6.726 8.496 10.62l14.337 8.673c10.266 6.195 17.7 14.337 17.7 29.206 0 20.356-18.055 31.507-33.985 31.507zm188.504-8.85c-2.301 1.239-5.841 2.478-7.611 3.54l-20.001 10.62c-1.771 1.062-4.603 3.009-7.257 4.425l-1.416.708-1.062-4.248 1.062-.531c4.248-2.832 4.956-4.779 1.947-10.797l-4.779-9.735h-47.967l-4.779 9.735c-3.009 5.841-2.301 7.965 1.77 10.797.531.177 1.239.531 1.239.531l-1.239 4.248-1.416-.708c-2.478-1.416-5.31-3.363-7.08-4.425l-20.001-10.62c-1.947-1.062-5.31-2.301-7.611-3.54l-1.416-.708 2.832-3.363s.708.354 1.062.708c4.602 1.593 6.726 1.593 9.912-4.603l50.623-95.05 50.799 95.05c3.187 6.195 5.133 6.195 9.912 4.603.354-.354 1.062-.708 1.062-.708l2.832 3.363-1.417.708zm-63.19-54.694l-13.098 26.728h26.373l-13.275-26.728zm134.164 61.774c-7.788 0-16.992-.708-16.992-.708h-14.868c-2.124 0-5.664.354-8.496.354h-1.416l.885-4.248h1.239c4.956-.531 6.726-1.593 6.726-8.496V120.13c0-6.903-1.77-7.965-6.726-8.496H969.5l-.885-4.248h1.416c2.832 0 6.372.354 8.496.354h12.036s12.213-.708 19.824-.708c28.851 0 52.393 23.542 52.393 52.393s-23.542 52.392-52.393 52.392zm-2.124-83.722h-6.018v62.659h6.018c17.169 0 31.152-13.983 31.152-31.33s-13.982-31.329-31.152-31.329zm167.265 90.98v-1.239c-.531-4.956-1.77-6.726-8.673-6.726h-32.214l-19.824 17.877v-58.942c-6.373.177-7.611 1.77-8.143 6.726v1.239l-4.248.885v-1.416c0-2.832.354-6.372.354-8.496v-19.116c0-2.124-.354-5.664-.354-8.496v-1.593l4.248.885v1.416c.531 4.779 1.77 6.372 8.143 6.549V107.74h52.038c6.903 0 8.142-1.77 8.673-6.726v-1.239l4.248-.885v1.416c0 2.832-.531 6.372-.531 8.496v20.532c0 1.593.354 3.894.354 6.195l-4.603-1.239c-.885-2.832-2.832-3.717-8.142-3.717h-27.259v18.054h27.259c6.903 0 8.142-2.478 8.673-5.133.178-.708 0-1.416 0-1.416l4.248-.885v1.593c0 2.832-.531 6.372-.531 8.496v17.7c0 2.124.531 4.248.531 7.08v1.416l-4.248-.885s.178-.708 0-1.239c-.531-3.363-1.77-5.31-8.673-5.31h-27.259v18.231h27.259c5.31 0 7.257-.885 8.142-3.717l4.603-1.239c0 2.301-.354 4.603-.354 6.195v20.532c0 2.124.531 5.664.531 8.496v1.416l-4.248-.883zm55.753-3.187l-16.992-16.992 16.992-16.992 16.992 16.992-16.992 16.992zm146.202-4.425c-2.832 0-6.373-.354-8.496-.354h-19.647c-2.124 0-5.664.354-8.496.354h-1.593l1.062-4.248h1.239c4.956-.531 6.726-1.593 6.726-8.496v-.885l-38.409-38.587v39.472c0 6.903 1.77 7.965 6.727 8.496h1.238l.885 4.248h-1.416c-2.832 0-6.371-.354-8.496-.354h-19.824c-2.123 0-5.664.354-8.496.354h-1.416l.886-4.248h1.239c4.955-.531 6.726-1.593 6.726-8.496V120.13c0-6.903-1.771-7.965-6.726-8.496h-1.239l-.886-4.248h1.416c2.832 0 6.373.354 8.496.354h19.824c2.125 0 5.664-.354 8.496-.354h1.416l-.885 4.248h-1.238c-4.957.531-6.727 1.593-6.727 8.496v.708l38.409 38.409V120.13c0-6.903-1.77-7.965-6.726-8.496h-1.239l-1.062-4.248h1.593c2.832 0 6.372.354 8.496.354h19.647c2.123 0 5.664-.354 8.496-.354h1.593l-.886 4.248h-1.416c-4.955.531-6.549 1.593-6.549 8.496v78.589c0 6.903 1.594 7.965 6.549 8.496h1.416l.886 4.248h-1.593zm113.986 7.612v-1.239c-.53-4.956-1.77-6.726-8.673-6.726h-32.215l-19.824 17.877v-58.942c-6.371.177-7.61 1.77-8.142 6.726v1.239l-4.248.885v-1.416c0-2.832.354-6.372.354-8.496v-19.116c0-2.124-.354-5.664-.354-8.496v-1.593l4.248.885v1.416c.531 4.779 1.771 6.372 8.142 6.549V107.74h52.039c6.903 0 8.143-1.77 8.673-6.726v-1.239l4.248-.885v1.416c0 2.832-.53 6.372-.53 8.496v20.532c0 1.593.354 3.894.354 6.195l-4.602-1.239c-.886-2.832-2.832-3.717-8.143-3.717h-27.258v18.054h27.258c6.903 0 8.143-2.478 8.673-5.133.177-.708 0-1.416 0-1.416l4.248-.885v1.593c0 2.832-.53 6.372-.53 8.496v17.7c0 2.124.53 4.248.53 7.08v1.416l-4.248-.885s.177-.708 0-1.239c-.53-3.363-1.77-5.31-8.673-5.31h-27.258v18.231h27.258c5.311 0 7.257-.885 8.143-3.717l4.602-1.239c0 2.301-.354 4.603-.354 6.195v20.532c0 2.124.53 5.664.53 8.496v1.416l-4.248-.883zm141.953-78.766v-1.239c-.531-4.956-1.593-6.727-8.673-6.727h-26.904v66.376c0 6.903 1.77 7.965 6.726 8.496h1.239l1.062 4.248h-1.593c-2.832 0-6.372-.354-8.496-.354h-22.479c-2.124 0-5.664.354-8.496.354h-1.593l1.062-4.248h1.238c4.956-.531 6.549-1.593 6.549-8.496v-66.376h-26.904c-6.902 0-7.965 1.771-8.496 6.727v1.239l-4.248 1.062v-1.593c0-2.832.354-6.372.354-8.496v-22.479c0-2.124-.354-5.664-.354-8.496V98.89l4.248.885v1.239c.531 4.956 1.594 6.726 8.496 6.726h78.59c7.08 0 8.142-1.77 8.673-6.726v-1.239l4.248-.885v1.416c0 2.832-.354 6.372-.354 8.496v22.479c0 2.124.354 5.664.354 8.496v1.593l-4.249-1.061zm199.479-28.675h-1.239c-5.134.531-5.841 1.947-8.673 7.788l-50.977 96.82-24.781-47.26-24.779 47.26-50.977-96.82c-3.01-5.841-3.541-7.257-8.674-7.788h-1.238l-1.062-4.248h1.593c2.832 0 6.372.354 8.496.354h25.312c2.124 0 5.664-.354 8.496-.354h1.593l-1.062 4.248h-1.239c-4.956.531-7.435 3.717-4.603 8.85l23.365 45.667 11.505-22.656-12.744-24.072c-3.009-5.841-3.718-7.257-8.673-7.788h-1.416l-.886-4.248h1.593c2.832 0 6.373.354 8.496.354h21.949l4.955 9.735 4.957-9.735h21.947c2.125 0 5.664-.354 8.496-.354h1.594l-.885 4.248h-1.416c-4.957.531-5.664 1.947-8.674 7.788l-12.744 24.072 11.506 22.656 23.363-45.667c2.832-5.31.354-8.319-4.602-8.85h-1.239l-1.062-4.248h1.593c2.832 0 6.372.354 8.496.354h25.312c2.124 0 5.664-.354 8.496-.354h1.593l-1.061 4.248zm78.055 102.13c-29.914 0-54.34-24.249-54.34-54.339s24.426-54.339 54.34-54.339c30.09 0 54.34 24.249 54.34 54.339s-24.25 54.339-54.34 54.339zm-7.965-85.846c-11.506 2.832-20.71 12.036-23.542 23.541h23.542v-23.541zm0 39.472h-23.542c3.009 11.505 12.036 20.709 23.542 23.541V167.39zm15.93-39.472v23.541h23.719c-3.01-11.504-12.037-20.709-23.719-23.541zm0 39.472v23.541c11.682-2.832 20.887-12.036 23.719-23.541h-23.719zm195.23 44.073c-2.832 0-6.372-.354-8.496-.354h-24.249l-41.064-41.064h-2.124v28.674c0 6.903 1.77 7.965 6.727 8.496h1.238l.885 4.248h-1.416c-2.832 0-6.371-.354-8.496-.354H2014.5c-2.123 0-5.664.354-8.496.354h-1.416l.886-4.248h1.239c4.955-.531 6.726-1.593 6.726-8.496V120.13c0-6.903-1.771-7.965-6.726-8.496h-1.239l-.886-4.248h1.416c2.832 0 6.373.354 8.496.354h22.656c2.125 0 8.496-.354 10.975-.354 17.346 0 31.329 13.983 31.329 31.152 0 10.443-4.956 19.47-12.567 25.134l34.87 35.046c7.61 7.434 8.496 8.142 11.682 8.496.531.177 1.239 0 1.239 0l1.062 4.248h-1.595zm-69.916-86.377h-6.018v26.904h6.018c7.258 0 13.453-6.018 13.453-13.452 0-7.256-6.195-13.452-13.453-13.452zm190.098 86.377c-2.832 0-6.372-.354-8.496-.354h-24.249l-37.348-37.347v24.957c0 6.903 1.771 7.965 6.726 8.496h1.239l.886 4.248h-1.416c-2.832 0-6.373-.354-8.496-.354h-22.656c-2.125 0-5.664.354-8.496.354h-1.416l.885-4.248h1.238c4.957-.531 6.727-1.593 6.727-8.496V120.13c0-6.903-1.77-7.965-6.727-8.496h-1.238l-.885-4.248h1.416c2.832 0 6.371.354 8.496.354h22.656c2.123 0 5.664-.354 8.496-.354h1.416l-.886 4.248h-1.239c-4.955.531-6.726 1.593-6.726 8.496v12.036l24.427-24.426h21.417c2.124 0 5.664-.354 8.496-.354h1.593l-1.062 4.248s-.707-.177-1.238 0c-3.01.354-4.071 1.062-11.506 8.496l-31.506 31.329 47.082 47.26c7.611 7.434 8.496 8.142 11.683 8.496.531.177 1.239 0 1.239 0l1.062 4.248h-1.594z"/></g></svg>