<svg xmlns="http://www.w3.org/2000/svg" width="609.833" height="702.017" viewBox="0 0 609.833 702.017"><path fill="#D9C873" d="M170.44 469.613c0 33.758-28.879 61.111-64.521 61.111s-64.521-27.355-64.521-61.111c0-33.758 28.879-61.111 64.521-61.111s64.521 27.353 64.521 61.111zm-64.521-232.405c-35.641 0-64.521 27.355-64.521 61.112s28.879 61.112 64.521 61.112 64.521-27.355 64.521-61.112-28.879-61.112-64.521-61.112zm0 342.584c-35.642 0-64.521 27.355-64.521 61.111 0 33.758 28.879 61.113 64.521 61.113s64.521-27.355 64.521-61.113c0-33.755-28.879-61.111-64.521-61.111zM543.605 269.58H264.939c-33.109 0-33.109 57.48 0 57.48h278.666c33.109 0 33.109-57.48 0-57.48zM260.851 498.353h232.791c27.658 0 27.658-57.48 0-57.48H260.851c-27.66 0-27.66 57.48 0 57.48zm258.68 113.813H262.968c-30.483 0-30.483 57.48 0 57.48h256.563c30.482 0 30.482-57.48 0-57.48zM126.482 0c-.24 0-7.2 14.64-23.041 38.641l-13.2 19.92-11.28-18.96C66.721 18.24 60.961 4.32 58.561 0H18.48c0 6.72-1.44 24.721-4.56 49.201L8.16 95.282c-2.16 18-6 41.281-8.16 53.761h25.92c-.24-7.68-.24-26.4 1.44-49.441l6.72-72.242 4.56 7.92c6.96 12.24 26.4 44.401 33.121 55.921l17.521-.48 39.84-63.12c1.44 15.601 5.04 60.722 5.76 85.442.72 15.84.48 30.001 0 36.001h47.041c-2.16-9.6-5.76-29.521-7.68-48.961L165.123 0h-38.641zm79.434 149.044h86.162v-20.4c-6.96 1.44-23.76 4.08-44.161 5.04V80.882c18.48.72 30.721 1.92 35.041 2.64v-20.64c-4.32.72-16.561 2.16-35.041 2.64V15.361c20.401.96 37.201 3.6 44.161 5.04V.001h-86.162c1.44 11.041 3.12 32.161 3.12 49.681v49.681c0 21.84-2.88 45.36-3.12 49.681zm239.281 0c-.721-7.44-1.92-25.681-1.92-49.201V51.362c0-21.841 1.439-46.561 1.439-51.361h-26.16c1.438 9.12 3.84 30 5.039 54.001l1.199 39.121c-11.279-8.16-60.721-57.841-94.803-93.122h-16.32c.722 7.44 1.681 25.681 1.681 49.201v48.481c0 21.841-1.199 46.561-1.199 51.361h25.92c-1.198-9.12-3.118-30-4.559-54.001l-1.201-33.601c15.841 10.08 63.122 55.921 94.321 87.602h16.563zm70.316-99.122c0-24.481.961-40.081 1.92-49.921h-43.439c.959 11.041 2.4 32.401 2.4 49.681v36.241c0 43.441 25.438 66.722 69.84 66.722 38.881 0 61.203-24.241 61.203-69.362v-33.84c0-17.281 1.438-38.401 2.396-49.441h-25.68c.959 11.041 2.16 32.161 2.16 49.441v33.84c0 35.761-12.721 54.241-35.762 54.241-22.561 0-35.041-18.24-35.041-53.281V49.922h.003z"/></svg>