<svg xmlns="http://www.w3.org/2000/svg" width="522.667" height="489.333" viewBox="0 0 522.667 489.333"><path fill="#FFF" d="M2.216 2.074h518.235v485.184H2.216z"/><path fill="#2E334C" d="M0 489.333h522.667V0H0v489.333zm2.958-78.688c1.664-7.667 7.154-13.593 14.7-15.855 2.74-.824 6.496-1.368 14.74-2.516 16.786-2.336 47.842-2.269 42.299-27.439-1.361-6.174-3.979-12.101-5.121-18.319-2.693-14.688-4.526-29.599-4.526-44.557 0-6.595.357-13.243 1.194-19.849 2.356-18.645 10.064-35.539 13.313-53.578 1.415-7.86-.079-14.732 3.353-22.515 3.147-7.125 8.306-13.268 13.942-18.559 12.969-12.173 6.359-29.907 10.934-45.121.003-.008.005-.011.005-.016 3.315-11.597 20.183-24.738 31.368-27.556 13.835-3.482 25.669-3.045 39.354.883a32.418 32.418 0 017.795 3.415c1.285-2.006 2.708-3.672 4.263-4.971a.157.157 0 00-.012.01c6.25-5.286 11.437-11.71 18.355-16.215 8.386-5.462 17.453-7.439 25.461-9.175-.13-.733-.26-1.474-.392-2.199-3.814-20.691-4.714-41.063 7.635-59.372C252.68 10.732 269.162 2.53 288.016 4.037c15.309 1.226 30.895 9.917 37.906 21.137 12.736 20.374 11.955 45.713 10.736 68.764 5.451.509 12.203 2.034 17.436 5.203 12.816 7.762 29.287 12.23 31.33 29.593 1.566 13.38 7.189 25.821 12.736 37.909 4.297 9.357 7.488 22.809 14.791 30.358 5.834 6.031 14.457 6.313 22.055 8.718 6.248 1.972 11.902 5.45 16.406 10.224 3.865 4.1 5.504 9.496 9.855 13.232 4.305 3.689 9.656 4.816 12.686 10.062 5.672 9.812 1.312 22.863-9.15 27.299-5.83 2.474-12.16 1.942-17.432.574 2.928.758 6.705 25.518 7.223 28.356 1.617 8.887 2.844 17.845 4.434 26.733.777 4.331 4.799 15.463 7.23 21.671.23.509 2.77 6.027 3.012 6.552 7.348 15.994 69.266 49.84 40.566 71.646-1.711 1.301-17.107 6.345-16.805 4.686-.5 2.755-1.281 7.049-2.264 12.474.127.085.26.17.371.246 7.65 5.096 12.025 15.987 10.107 24.967-.865 4.06-11.008 22.522-15.504 22.522h-8.334c-5.686 0-11.395-.131-17.105-.317-14.717-.486-29.482-1.373-44.207-1.481-46.285-.334-92.568-.726-138.85-1.083-27.625-.215-55.248-.438-82.878-.658-37.454-.54-170.692.118-172.061.125l-18.116.08c.245-2.651-2.137-68.774-1.232-72.984zM296.197 76.491a.158.158 0 00-.131-.067c-.055 0-.1.024-.133.067-.738 1.018-2.797 1.734-4.268 1.687a.156.156 0 00-.156.104.155.155 0 00.047.182l.139.116a.156.156 0 00.068.034c1.598.361 3.635-.094 4.709-1.548a.158.158 0 000-.191l-.275-.384zm-3.437 17.995c-.582-.393-.818.231-1.283.628-.463.396-2.137.042-3.564-.053-1.426-.095-1.521.382-1.906.954-.381.571-1.393.55-2.188.096-.781-.452-.977-.084-1.742.392-.762.476-1.023.446-1.877.256-.857-.189.27 2.285.666.953.152-.516 1.414-.287 2.078 0 .668.284 2.189.474 3.146.19.949-.286 3.043-.857 3.99-1.524.959-.666 2.479-.938 2.994-.475.625.569.539-.841-.314-1.417zm210.795 307.586l-.004-.003a69.965 69.965 0 01-.271-.243.14.14 0 01-.043-.063c-1.518-4.007-5.16-9.089-8.682-12.108-1.24-1.062-2.975-2.206-5.16-3.658-3.496-2.31-7.842-5.183-10.852-8.191-1.848-1.848-3.619-3.446-5.184-4.858-3.027-2.736-5.428-4.898-7.27-7.767-1.592-2.479-3.732-5.827-5.766-9.692a.055.055 0 00-.006-.008l-3.289-7.158c-.002-.003-.004-.005-.004-.008-.115-.295-6.674-17.009-7.93-24.05-1.271-7.107-3.426-21.194-4.443-26.774-.596-3.297-1.648-7.744-2.664-12.059a1.018 1.018 0 00-.16-.368.127.127 0 01-.023-.055c-1.322-5.455-2.805-11.216-4.582-16.218l-.006-.023c-.25-1.245-.643-2.511-1.064-3.829-.656-2.053-1.396-4.374-1.396-6.281 0-.188-.002-.361-.004-.537 0-.067.037-.124.098-.151l.02-.007c.002-.001.002-.003.004-.003a9.337 9.337 0 001.695-.98.151.151 0 01.133-.026c4.299 1.04 7.73.202 10.402-1.38a.161.161 0 01.139-.012c4.637 1.757 10.09 2.735 14.055 1.053 2.418-1.025 4.123-2.914 4.809-5.317a8.958 8.958 0 00.359-2.513c0-1.48-.379-2.923-1.119-4.208-1.625-2.813-4.422-4.09-7.281-4.946a.173.173 0 01-.074-.047c-1.297-1.423-3.049-2.381-5.104-2.785a.16.16 0 01-.1-.065 8.14 8.14 0 00-1.227-1.365.158.158 0 01-.051-.151c.086-.462.131-.926.131-1.386 0-2.218-.986-4.386-2.846-6.067-2.197-1.973-2.961-2.992-3.137-3.25a.115.115 0 01-.018-.029c-1.293-3.139-3.654-4.26-4.939-4.869-.533-.253-1.043-.492-1.785-.99-1.125-.749-2.172-1.551-3.184-2.33-1.502-1.146-2.793-2.14-4.176-2.833-1.785-.892-10.27-3.518-16.506-3.11a.164.164 0 01-.064-.01c-2.904-1.026-6.871-1.99-10.646-1.509a.16.16 0 01-.098-.019c-.256-.137-.516-.266-.773-.395a.16.16 0 01-.09-.162c.004-.037.008-.074.008-.111 0-3.157-1.326-6.704-2.926-10.962-2.08-5.544-7.26-18.315-9.742-23.7a.118.118 0 01-.012-.036c-.777-3.908-2.781-8.833-4.738-13.625-1.041-2.547-2.117-5.179-2.453-6.423l-.375-1.42c-1.137-4.313-3.193-12.126-7.783-20.481a.133.133 0 01-.02-.072c-.129-3.571-.982-8.984-6.408-12.695-2.877-1.97-6.088-2.644-9.213-4.033-3.92-1.738-7.174-4.583-10.816-6.788-4.154-2.517-11.029-3.86-15.875-3.855-2.17.002-4.844.863-6.322-1.296-1.693-2.474-.648-6.475-.51-9.234.461-8.671.844-16.241.844-20.18 0-.59-.01-1.1-.029-1.519-.15-3.535-.766-9.125-1.26-12.562a.149.149 0 01.008-.078c.508-1.399.715-2.784.715-4.108 0-4.01-1.955-7.766-3.385-11.425-1.586-4.151-3.76-9.836-6.002-13.429-5.252-8.407-17.75-15.2-29.721-16.158-15.072-1.207-27.77 5.172-36.724 18.441-5.464 8.106-8.837 19.913-8.837 30.398 0 1.23.045 2.442.141 3.626.259 3.239.992 7.609 1.84 12.668.807 4.809 1.887 9.784 2.52 14.987l.002.006c.502 3.169-4.363 3.426-6.737 3.953-8.644 1.922-17.193 3.379-24.779 8.319-6.623 4.313-11.364 10.417-17.329 15.459l-.034.03-.002.002c-2.231 1.86-3.847 5.604-4.71 8.016a.158.158 0 01-.035.058c-1.307 1.357-2.652 3.092-4.096 5.121-.032.044-.079.068-.134.068s-.1-.025-.132-.07c-3.409-4.931-8.436-8.708-14.396-9.949a.104.104 0 01-.034-.011 5.699 5.699 0 01-1.011-.652c-2.562-2.047-6.405-2.332-9.747-1.591a.14.14 0 01-.073-.001c-2.301-.575-4.688-.588-6.599-.588-5.06 0-9.996 1.231-14.869 2.459-3.212.807-6.282 2.225-8.834 4.362-2.088 1.747-3.9 4.026-5.438 6.26a.169.169 0 01-.077.06c-3.221 1.229-7.648 3.427-9.367 9.449-.74 2.594-.706 5.304-1.076 7.958-.326 2.351-1.269 4.557-1.269 6.954 0 2.005.351 4.678 1.21 7.292a.15.15 0 01-.003.112 20.146 20.146 0 00-1.384 5.713c-.148 1.577.187 3.372-.396 4.865-.788 2.018-1.794 3.933-2.712 5.888-2.146 4.571-4.633 7.913-8.336 11.39-6.146 5.765-14.135 13.253-14.135 26.468 0 2.393.277 4.972.857 7.758a.145.145 0 01-.012.1c-6.656 14.547-11.375 32.678-14.084 54.075-3.177 25.194.92 51.79 6.346 76.396a279.99 279.99 0 002.083 8.818c.226.887 1.875 5.029 2.021 6.696.005.07.051.125.118.144a.163.163 0 00.174-.062c1.129-1.577 2.146-2.546 3.387-5.464l.013-.024c1.246-1.939 1.755-3.49 2.584-5.155 1.269-2.535 2.032-5.073 1.269-12.687-.762-7.616-.394-35.968-.394-39.85 0-3.105 1.535-13.973 2.299-24.228v-.022c-.256-4.301-1.867-5.029-3.046 1.027-1.901 9.772-3.172 16.88-4.188 23.987-1.078 7.541-4.313 7.865-5.219 2.41-.785-4.733-1.628-12.302-1.654-12.543l-.002-.012c-.754-19.354 2.969-39.347 9.046-57.698a139.835 139.835 0 012.852-7.821c.532-1.335 3.561-6.059 3.229-7.332-4.155-15.778 3.269-23.105 10.479-29.878 3.946-3.646 8.555-7.489 11.173-9.93a.172.172 0 00.051-.103c.518-5.313 2.532-11.106 2.532-11.106s-.003-.014-.013-.036c.102-.166.198-.329.298-.484a.15.15 0 00.024-.109c-.308-2.314-.598-5.486.712-8.72l.01-.018c2.604-4.687 3.843-6.282 5.314-11.191 1.523-5.076 4.063-7.105 6.599-8.375 2.54-1.269 7.106-.254 9.141-.254 2.029 0 8.119-1.014 10.657 1.27 2.533 2.281 6.084 7.601 7.61 8.373l.013.005c.656.262 4.467 1.609 6.846 2.027 2.694.477 10.912 2.285 13.067 3.553 2.158 1.271 5.33 2.539 6.344 3.045 1.02.509.988-.798-.757-2.917-1.775-2.159-4.793-3.901-7.043-5.236-3.431-2.03-6.092-2.537-9.774-2.537-2.682 0-6.519 1.245-8.27-1.617a4.427 4.427 0 01-.673-2.405c0-.055.026-.102.071-.133.32-.215.909-.68.816-1.144-.122-.602-.29-1.977.519-2.248.491-.163 1.018-.076 1.526-.149.756-.108.549-.716.835-1.102a.152.152 0 00.024-.149.158.158 0 00-.109-.104c-1.135-.312-2.244-.897-1.822-1.91a.158.158 0 01.179-.097.16.16 0 01.132.157.76.76 0 00.296.633.156.156 0 00.147.029.155.155 0 00.107-.104c.113-.336.143-.708.503-1.025a.16.16 0 01.192-.016.156.156 0 01.071.179c-.237.913.494 1.616 1.849 1.897a.07.07 0 00.016.002c.396.043 1.072.199 1.623.199.126 0-.364-.844-.395-1.015a.112.112 0 00-.013-.039c-.59-1.267.916-1.744 1.298-3.004 0-.003 0-.005.002-.008l.107-.436a.161.161 0 01.16-.123.159.159 0 01.156.128c.123.584.123 1.278-.175 1.926-.059.125-.13.255-.211.386a.161.161 0 00.01.183.158.158 0 00.173.057l.061-.017c.29-.08.61-.078.898-.183.268-.099.453-.326.711-.438.588-.257.635.821 1.496.157.387-.298.592-.746.916-1.1.181-.202.503-.705.786-.732.539-.053.337.718.375 1.094.019.196.527.012.612-.024.314-.138.259-.432.496-.633.373-.315.197-.056.422.204v.002c.235.282.797.681 1.146.792.157.049.723.022 1.076-.116a.16.16 0 01.172.035.156.156 0 01.04.17c-.216.613-.853 1.157-2.105 1.604-1.587.562-3.093.935-4.485 1.934-1.499 1.075-3.854 2.321-4.785 3.948-1.222 2.139 2.552 2.618 3.669 1.341 1.133-1.294 3.236-3.559 6.147-5.011 2.857-1.429 5.555-.35 7.339.44.012.004.02.009.028.015 1.934 1.333 4.081 3.846 5.085 5.85 1.129 2.264 2.264 5.662 2.588 8.249.322 2.588.322 3.234-.648 4.042-.971.81-1.188 2.029.484 2.264 2.128.299 4.955 1.243 4.599-2.461-.379-3.998-3.358-10.476-6.108-13.71s-5.767-5.822-6.737-6.791c-.969-.972-2.102-7.764-4.527-10.188-2.357-2.358-9.054-4.691-11.481-4.529-3.126.209-5.734 2.164-6.735 5.175-.326.97 1.885 2.101 3.34.161 1.455-1.941 3.149-3.143 5.412-3.304.994-.071 2.341.275 3.329.589a.16.16 0 01.109.193.164.164 0 01-.188.12 2.623 2.623 0 01-.322-.077l.4.378c.004.002.005.004.007.007.351.373.575.782.632 1.136a.157.157 0 01-.097.175.155.155 0 01-.191-.054c-.136-.184-.263-.342-.322-.429-.885-1.245-1.974-1.194-3.093-1.313-.083-.01-.101.075-.064.124.42.583 1.18 1.997.931 2.05-.688.145-1.064-1.09-1.192-1.09-.083 0-.105.269-.111.504a.159.159 0 01-.115.151.158.158 0 01-.179-.062c-.239-.345-.241-.947-.405-.91-.134.029-.251.671-.096 1.428a.16.16 0 01-.066.165.157.157 0 01-.177.006c-.521-.315-1.163-.551-1.691-.566a.16.16 0 00-.141.246c.3.486.969 1.462.807 1.623-.123.125-.956-.106-1.561-.013a.157.157 0 00-.125.097.156.156 0 00.018.157c.073.102.145.223.213.324.03.048.036.104.011.156a.151.151 0 01-.126.093c-.56.076-1.117-.346-1.903-.388-.475-.022-1.048 0-1.579.153-.273.077-.443.284 0 .252.892-.062 1.172.816 1.642 1.431.463.592 1.263.928 1.924 1.01l-.002-.025a.15.15 0 00-.032-.084 1.867 1.867 0 01-.335-.699v-.006l-.095-.443.03.044c.01.015.019.026.032.037.401.33.762.554 1.169.717l.022.007c.546.134 1.115.213 1.456.609a.161.161 0 01-.211.241c-.169-.11-.329-.2-.493-.265a.162.162 0 00-.206.225c.136.264.273.574.229.766a1.324 1.324 0 00-.061-.054c.002.007.008.013.012.021-.064-.06-.127-.107-.192-.157l-.002-.001c-.192-.143-.389-.263-.579-.382l-.017-.01c-.454-.211-.812-.187-1.125-.147a3.42 3.42 0 01-1.078-.017l-.008-.001a4.888 4.888 0 01-.837-.177c-1.609-.502-3.482-2.423-4.362.133-.099.287-.206.555-.316.811a.163.163 0 01-.188.093c-.735-.18-1.342-.847-1.773-1.477-.008-.01-.012-.019-.018-.031l-.028-.07a.164.164 0 01.026-.166.161.161 0 01.16-.052c.393.09 1.031.191 1.125-.089v-.005c.123-.411.062-.914-.082-2.088-.144-1.177.906-3.968 2.692-5.659 1.597-1.511 3.044-1.855 4.024-2.199a.159.159 0 01.094-.004c.042.011.081.023.124.03.683.11 1.404.212 2.104.328a.16.16 0 00.128-.034.171.171 0 00.061-.119c.072-1.676-5.041-1.999-7.642-1.45a.161.161 0 01-.099-.01c-1.066-.452-2.143.059-3.407-.273-.764-.201-1.41-.625-2.077-1.032a.161.161 0 01-.071-.179.16.16 0 01.15-.121 44.083 44.083 0 011.717-.036c2.064 0 4.863 0 6.402.908a.16.16 0 00.147.009c2.084-.917 4.881-.907 5.823-.155.952.76 2.475 1.714 3.615 1.903 1.144.19 3.43 1.142 5.521 2.284s4.568 3.802 7.037 8.367l.01.016c1.317 1.875 3.075 2.913 4.585 2.755a.143.143 0 00.068-.024c.021.009.037.019.06.02.879.017 1.854-.206 2.739-.416a.161.161 0 01.183.086c.509 1.042.396 2.693 1.061 3.525.496.617 2.209 1.367 3.068 1.593a.162.162 0 00.204-.149c.188-4.219-.271-7.926.586-12.167.337-1.662.706-3.37 1.172-5.012l.002-.01c.716-1.99 1.901-4.662 2.829-5.437 2.094-1.712 8.565-9.708 16.752-15.038 7.569-4.927 17.565-6.439 21.745-7.239l.014-.002c1.53-.158 2.749-.281 2.987.198.38.761-3.225 2.025-6.854 3.235-3.998 1.334-8.562 3.236-12.944 4.759-4.376 1.523-5.139 3.999-6.089 6.283-.954 2.284-1.715 8.375-1.907 12.753-.19 4.379-.76 7.613-1.327 12.373-.454 3.768-.438 8.204.379 10.66.379 1.142 1.331 1.903 1.521-.761.189-2.66.765-4.569.955-7.422.187-2.856.758-5.712 1.329-7.807.572-2.094 3.43-3.235 5.902-4.948 2.475-1.715 3.997-3.236 3.046-3.045-.952.19-6.473 2.474-7.426 2.284-.95-.191-.381-2.094.192-3.997.571-1.905 1.332-4.759 1.521-5.711.241-1.195 1.333-4.378 4.184-6.663 2.835-2.263 14.825-7.146 21.338-7.79a.154.154 0 00.113-.062.157.157 0 00.032-.125c-.367-2.223 1.009-3.302 2.185-3.856a.163.163 0 01.073-.016 1.87 1.87 0 00.275-.017.161.161 0 01.148.256.823.823 0 01-.175.188c-.758.572-.758 4.188.379 4.378 1.087.18 2.341-2.729 2.625-7.094l.004-.017c.202-1.171.264-2.624.225-4.277v-.015c.195-3.049.434-5.688.574-8.776.188-4.229.188-5.9.955-9.517.758-3.617.379-9.136 0-14.467-.387-5.329.275-9.858 2.088-14.085 2.289-5.33 8.949-15.229 13.709-19.797.115-.111.264-.177.395-.263 3.178-2.106 5.004-3.082 6.646-1.072 1.713 2.096 1.865 3.19 2.666 5.903.639 2.158.949 3.997 1.143 5.9.191 1.905 1.904 6.473-.762 6.473-2.664 0-6.281.571-5.521 1.713.764 1.143 4.76 1.143 7.422-.38 2.668-1.524 3.936-2.158 2.795-5.584-1.145-3.427-2.602-8.693-1.652-7.933 2.471 1.977 5.967 12.5 7.811 7.806.637-1.635-.32-4.314-3.812-6.855-3.172-2.308-3.682-6.914-4.627-8.248-.957-1.331-2.967-2.664-6.479-2.664-3.678 0-9.205 3.762-11.293 5.71-1.902 1.777-4.312 4.188-6.725 8.249-1.697 2.862-4.316 7.778-4.945 11.166a262.173 262.173 0 01-1.907 9.202c-.571 2.475.381 4.377.762 7.423.383 3.046 1.333 4.188 1.145 7.044-.191 2.855-.955 5.139-.955 7.994 0 1.63-.061 3.256-.113 4.812a.163.163 0 01-.152.156.161.161 0 01-.17-.138c-1.167-8.18-2.974-17.171-3.37-22.151-.761-9.517 2.092-21.7 7.61-29.885 6.738-9.988 16.562-16.752 30.842-15.611 9.572.767 20.525 6.385 24.742 13.135 2.584 4.135 5.525 12.755 6.666 15.418.963 2.257 2.34 5.558 1.471 8.366-.584 1.85-.584 4.894-1.219 9.084-.246 1.636-1.014 4.822-1.27 6.473-.25 1.649-.762 4.44-.885 6.471-.131 2.031-.381 3.046-.893 4.95-.506 1.904-2.408 6.09-.633 4.568 1.775-1.521 2.5-3.058 2.791-6.345.381-4.315.764-7.361 1.27-10.026.471-2.459 1.049-4.159 1.527-2.412l.006.03c.053.658.094 1.291.115 1.875.193 4.377-.951 22.841-1.137 27.602-.197 4.758 2.279 7.042 3.043 8.375 2.188 3.826 7.951 1.883 11.191 2.45 2.969.516 5.973 1.236 8.92 1.788 1.908.357 4.039 1.444 5.355 3.061.023.028.035.06.037.096.078 1.95-3.355 2.667-6.289 3.039-2.971.416-6.449.568-9.498-.388-4.557-1.428-10.334-4.142-13.523-7.826-.271-.308-.615-.69-1.01-1.088-.012-.009-.018-.019-.025-.03-.711-1.168-1.758-2.598-2.582-4.338a65.276 65.276 0 00-.828-1.666c-.004-.008-.008-.015-.01-.024-.869-2.65.01-5.302-.367-7.954-.381-2.666-1.398-4.061-.256-7.741 1.145-3.681 1.016-5.839.508-9.644-.508-3.809-1.395-9.265-1.65-14.215-.25-4.949-1.521-9.771-1.521-12.436 0-2.667-1.014-8.758-8.756-9.646-3.289-.377-7.107-.887-4.699 1.777 2.416 2.666 3.686 3.172 6.1 3.299 2.408.126 3.801.381 4.182 3.3.383 2.919 2.029 7.361 2.285 13.197.256 5.837 1.016 12.438.889 16.371-.105 3.25-.379 4.044-.525 6.943 0 .008 0 .014-.002.021-.076.406-.156.835-.234 1.286-.488 2.725-.867 2.3-1.328 1.336-.002-.003-.004-.006-.004-.01-.98-2.448-2.816-3.188-2.35-6.466.574-3.996 0-6.853-1.139-7.423-1.143-.57.189-.951 1.334-2.094 1.139-1.143 1.52-4.378-2.1-6.281-3.615-1.904-6.66-2.855-8.377-5.332-1.711-2.474-1.9-3.233-3.807-3.426-1.898-.19-3.045-1.332-3.613-3.618-.57-2.282-1.902-4.187-4.76-3.234-2.852.951-7.99 2.091-9.326 2.284h-.004a1.554 1.554 0 00-.314.084.15.15 0 01-.061.009c-.859-.027-1.281-.374-1.467-.981-.471-1.531.355-5.091 1.65-6.083 1.145-.879 2.064.053 3.303.244.955.149 3.275-1.02 1.27-1.395-2.029-.381-4.945-1.27-6.092-2.283-1.527-1.361-3.785-.472-3.66 1.18.129 1.677 1.123 3.007 1.541 4.822.215.954.768 7.688-2.451 5.736-1.018-.62-1.916-2.542-3.342-2.365-1.666.203-2.869 4.775-1.604 5.793.949.76 1.891 2.01.176 4.104-1.709 2.094-2.082 5.222-1.701 7.315.141.771.178 1.672.168 2.634 0 .007 0 .014-.002.021-.191 1.383-.838 1.059-1.16-.682a.1.1 0 01-.004-.024c-.139-4.343-.107-8.66.236-11.085.215-1.507-1.141-1.713-1.52.19-.381 1.905-1.143 7.424-.762 10.85.381 3.428 1.33 8.947 1.33 11.993 0 3.045-.381 6.281.195 8.375.564 2.094 1.711 3.237 1.137 4.569-.572 1.331-1.332 1.712-2.473.571-1.143-1.143-2.668-5.478-2.475-8.566.189-3.089-.574-7.995-1.332-4.378-.76 3.617 0 9.327.758 11.232.764 1.902 2.479 5.138 3.049 6.85.572 1.715 1.713 3.619 1.336 5.332-.385 1.712-1.525 2.666-2.1 2.474-.57-.19-1.904.572-2.855 2.286-.947 1.711-2.471 1.14-3.234.76-.517-.259-.419.278.122.949 0 .002.002.003.004.005l.17.196.002.002c.225.252.51.514.844.752.525.374 1.432.54 2.434.583.012 0 .021.002.033.005 2.084.536 4.348.744 5.717.744 2.285 0 4.951.383 7.426 2.856 2.475 2.474 3.615 5.521 6.854 7.424a28.882 28.882 0 002.936 1.497.152.152 0 01.068.055c.682.974.754 2.306 1.244 4.286v.002c.084.319.168.658.244 1.005a.102.102 0 01.004.035c.004.336.004.667.004.987 0 2.883.986 4.675 2.068 7.174l.068-.006c.207.586.424 1.161.658 1.717 1.523 3.553 3.555 6.598 5.328 7.106 1.779.507 3.049-1.016 1.271-3.553-1.779-2.539-5.834-3.299-4.57-7.614 1.094-3.713.312-7.611 3.463-8.626a.152.152 0 01.064-.007c4.094.359 7.582.692 8.846.511.932-.133.844-1.465.512-2.454-.002-.005-.004-.009-.004-.014a2.4 2.4 0 00-.34-.738l-.004-.008a.874.874 0 00-.107-.146l-.006-.009c-.428-.552-1.082-1.004-1.762-.946-6.25.52-12.484.528-18.021-2.792-1.678-1.009-3.26-2.714-4.047-4.41-.004-.01-.008-.019-.01-.03-.225-.93-.494-1.933-.574-2.351-.148-.753-.326-1.38.379-2.555a.154.154 0 01.092-.071c.721-.225 1.459.414 2.385 1.802 1.523 2.284 2.535 3.298 3.555 4.061 1.014.763 2.029 2.031-.256-4.314-2.283-6.346-4.064-10.405-2.283-10.914 2.92-.832 6.289 3.296 8.631 4.568 2.752 1.501 5.67 1.359 8.631.112 1.52-.638 4.883-3.708 6.086-1.128.893 1.905 1.494 1.602 3.238 3.87 1.885 2.456 4.074 5.572 6.295 6.587 1.268.58-1.76 3.681-2.145 3.958-.549.402-6.535 2.955-7.961 3.04a.161.161 0 00-.129.246c.465.758 1.299 1.335 1.711 2.159.016.03.037.052.064.068.994.577.098 1.671-.283 2.404-.512.991-.611 2.141-.963 3.188a.161.161 0 00.027.151.155.155 0 00.141.061l1.062-.09a.158.158 0 00.127-.08c.111-.186.242-.393.361-.583l.002-.004c1.129-1.672 2.424-2.969 5.098-3.19 3.281-.275 3.393-2.326 4.012-5.142a.16.16 0 01.16-.127c1.391.017 5.689 1.768 4.889-.473-.27-.754-2.516-1.685-1.908-2.625.463-.715 1.711.15 2.506.265a.163.163 0 00.162-.076.164.164 0 00-.006-.178c-.684-.967-2.555-2.567-.344-3.025.699-.146 3.85 1.794 3.545.1a.158.158 0 00-.076-.111c-.582-.345-1.783-1.066-2.018-1.636-.59-1.44.688-1.29 1.438-.952.455.204 1.623 1.38 2.199.833.701-.672-.812-1.676-.881-2.511a.16.16 0 01.133-.172c1.912-.355 2.389 3.45 3.434 4.294 1.266 1.022 3.787.947 5.592 1.088.049.003.09.027.117.067.789 1.103.145 2.717-.66 4.332-1.02 2.03-15.654 19.985-16.754 21.574-2.283 3.298-7.361 9.644-8.631 11.42-1.266 1.776-6.854 8.884-8.121 10.659-1.268 1.779-4.568 5.585-5.328 6.6-.764 1.015-.764 4.061 1.52 2.03 2.285-2.03 5.076-5.077 8.631-10.405 3.555-5.333 8.375-13.453 10.406-14.47 2.031-1.015 5.078-1.775 6.346-1.267 1.27.507 4.312-1.271 2.283-2.285-2.031-1.015-2.535-1.523 1.27-2.791 3.807-1.271 7.869-4.316 3.299-3.807-4.568.506-5.076-1.525-2.027-4.062 3.041-2.538 5.33-7.107 7.359-9.137 2.029-2.03 3.805-5.583 5.582-5.837 1.273-.183 2.814-.492 4.52.004a.154.154 0 01.055.029c1.812 1.452 3.207 3.267 4.057 4.535 1.52 2.285 3.045 5.584 4.568 5.33 1.52-.252-1.016-7.106-2.033-10.151-1.016-3.046.256-4.061 2.285-4.061 1.254 0 3.656.194 6.037.698.01.002.021.006.033.011a15 15 0 012.053 1.128l.002.001c.209.143.418.265.617.381.012.007.021.015.033.024 1.607 1.58 1.809 2.813 1.061 4.163-.951 1.714-3.236 3.809-2.475 5.902.764 2.094 1.906 6.09 2.475 9.898.57 3.807.57 5.898.57 10.849 0 2.286.574 7.615 1.906 3.809 1.531-4.376 2.283-7.806.76-12.183-1.523-4.378-4.188-9.327-4.188-11.421s.57-2.474 1.902.19c1.322 2.642 4.699 9.777 5.686 13.979a.164.164 0 00.137.124l.971.14a.158.158 0 00.145-.055.159.159 0 00.033-.152c-1.504-5.076-3.189-10.651-4.877-13.464-1.711-2.854.379-1.904 1.525 0 1.135 1.898 8.332 15.528 10.07 27.685a.16.16 0 00.121.134l1.174.293a.161.161 0 00.199-.187c-1.908-10.043-4.965-23.577-13.984-33.953a.154.154 0 01-.035-.146c.363-1.412 1.096-3.241 4.848-2.105.02.006.033.013.049.023 3.434 2.464 3.457 6.168 3.457 8.976 0 .03.008.055.023.081 5.314 9.123 7.211 17.67 8.355 21.852 1.139 4.183 6.451 15.005 7.229 20.344a.173.173 0 00.012.046c2.104 4.4 7.609 17.882 9.889 23.961 2.281 6.091 3.234 8.758 1.902 10.472-.941 1.209-1.312 1.947-1.449 2.275a.15.15 0 00.01.144.152.152 0 00.121.079c2.133.258 6.209 1.697 8.092 3.329a.16.16 0 00.18.022c1.707-.856 4.121-.736 6.471-.225a.164.164 0 01.125.123.159.159 0 01-.059.163c-.186.146-.512.347-.992.631a13.729 13.729 0 00-1.836 1.071c-2.357 1.612-3.428 2.477-5.902 2.285-2.365-.181-11.195-.188-11.939-.188a.167.167 0 00-.094.028l-2.127 1.472c-.053.037-.08.101-.066.165s.061.113.127.126c4.148.88 9.672 1.077 14.482 1.632 4.947.57 8.945.191 11.99 1.714 3.049 1.522 7.232 3.81 8.562 7.995 1.312 4.113 3.902 10.977 3.998 11.225a44.022 44.022 0 00.705 2.363l.002.009c.299 1.09 1.045 3.849 1.199 5.06v.003c.008.055.383 2.71.383 7.231 0 4.558 2.273 9.119 2.662 11.783l.006.032c2.314 6.371 4.189 14.493 5.793 21.201a.107.107 0 01.006.035c.006.52.057 1.051.162 1.593 2.535 12.69 5.076 30.202 7.361 38.833 2.285 8.628 4.822 15.986 7.863 21.824.369.701.768 1.393 1.184 2.072l.008.013c2.465 5.047 5.236 9.406 7.316 12.638 3.422 5.329 7.992 8.374 13.322 13.707 5.332 5.328 13.705 9.898 16.373 12.18 2.664 2.285 5.709 6.474 6.85 9.52 1.129 3.013 3.377 3.045 3.059 4.52a.14.14 0 01-.045.082c-1.643 1.603-4.67 1.818-8.602.654a.078.078 0 01-.029-.013c-.912-.488-3.104-1.806-3.9-3.597-.461-1.036-.252-4.057-1.777-3.805-1.424.237-2.182-1.081-2.273-2.082-.004-.051-.029-.092-.07-.12s-.09-.034-.139-.021c-1.688.502-6.016 1.105-8.939-1.331-3.043-2.537-7.105-2.792-10.406-4.064-3.297-1.267-7.865-3.042-11.418-2.789-3.553.255-9.791-.253-11.928-1.012-3.557-1.267-6.33-1.495-4.568 2.028.289.583 1.184 1.469 2.547 2.25a.161.161 0 01-.104.301c-1.711-.268-3.215-.643-4.223-1.284-5.619-3.575-5.291-11.034-2.092-16.179 4.096-6.594-1.092-15.406-3.43-21.636-1.711-4.571-4.381-8.626-5.898-12.058-4.678-10.518-10.859-20.729-12.508-32.305-1.479-10.376-.348-21.083-1.072-31.527-.58-8.342-1.648-15.545-2.982-21.066-1.334-5.521-8.061-9.837-12.246-10.976-4.188-1.145-11.611-2.095-19.607-3.997-7.994-1.905-17.703-3.616-28.74-4.952-4.393-.529-6.99-1.154-10.465-1.555l.055-.029c-5.637-.564-7.359-4.187-5.584-6.666 1.779-2.473 7.486-3.611 12.438-2.155 4.895 1.444 10.172 2.308 11.168.255 1.209-2.475-14.971-4.567-11.93-8.758.795-1.09 2.666-2.155 4.822-2.664 1.801-.424 7.299-.672 9.08-.742a.16.16 0 00.152-.123.162.162 0 00-.078-.179c-1.293-.737-4.729-2.683-5.348-2.89-.744-.25-5.404-2.455-5.576-2.536l-.01-.005c-5.029-2.823-4.99-2.908-7.418-4.186-3.568-1.875-8.432-3.937-13.949-3.084a.164.164 0 00-.115.243l.797 1.357a.165.165 0 00.1.075c.869.223 10.166 2.622 12.689 3.885 3.43 1.711 6.186 3.424 7.713 4.375 1.254.786.793 2.541-1.24 1.525a60.664 60.664 0 00-3.988-1.808l-.018-.009c-.162-.088-2.756-1.484-2.846-.467-.086.938 4.137 3.729 4.99 4.283a.158.158 0 01.07.111.16.16 0 01-.035.129c-.92 1.085-2.543 1.285-4.635 1.127a.159.159 0 01-.039-.009c-.273-.095-.639-.17-1.115-.22-2.779-.287-5.734-1.784-7.449-2.848l-.006-.005-3.541-2.437-.014-.01c-5.129-2.758-12.469 1.278-19.285 5.076l-.004.002c-2.479 1.462-4.805 2.44-7.254 3.877-.135.079-.275.162-.422.244l-.006.002c-2.852 1.717-5.137 3.234-7.99 3.619-2.854.379-5.711-1.144-9.516-1.144-3.807 0-5.711.759-8.188.759-2.473 0-4.186 0-4.566-.949-.143-.357-.043-.746.311-1.156a.172.172 0 01.055-.041c.246-.115.5-.246.773-.388 2.666-1.399 4.381-1.65 6.984-2.539 4.406-1.507 9.117-2.257 13.627-3.276 4.418-1 8.242-2.547 12.121-4.204a.14.14 0 01.029-.009c1.691-.387.93-1.904-.016-2.662-.555-.443-1.627-.049-2.834.506l-.023.009c-.062.019-.127.036-.188.056-2.414.758-4.002 1.334-6.285 1.141-2.836-.233-2.752-3.729-2.709-5.967.064-3.463 1.172-5.945.49-9.45-.445-2.286-2.158-4.38-4.064-3.425-1.902.951-4.947.759-3.428-2.286 1.525-3.047 2.857-3.617 7.047-4.188 4.189-.57 1.713-11.611-2.666-6.471-3.721 4.367-5.9 6.917-7.803 8.948-1.904 2.033-8.375 8.312-9.771 10.087-1.398 1.777-4.695 4.948-6.344 5.713-1.652.759-4.697 1.396-6.221 1.521-1.523.128-.762 2.285 1.016 2.285.828 0 1.807-.166 2.707-.381a.158.158 0 01.176.074.158.158 0 01-.02.191c-.756.84-1.375 1.588-1.721 2.146-1.271 2.027-5.076 4.212-4.822 5.479.25 1.271 2.539.762 5.328.762 2.795 0 6.852-.251 4.312-1.775-2.535-1.524-1.014-3.705.254-5.229 1.141-1.361 8.984-9.437 12.07-13.114a.153.153 0 01.096-.056c1.01-.171 2.068-.067 2.939 2.005 1.014 2.411 2.221 4.187 3.615 6.469 1.396 2.286 2.031 3.173 3.045 4.57 1.018 1.395-.105 3.527-2.096 4.184-2.279.766-4.119 1.396-6.273 1.906l-.008.002-13.467 3.977-.01.003c-1.219.283-2.623.65-3.842.728-2.348.147-4.242.266-6.119-.662a.108.108 0 01-.039-.027c-1.494-1.426-3.084-2.969-2.981-4.779.129-2.156-.446-3.171-.509-5.205-.124-4.25-1.2-3.934-3.654-4.571-.819-.211-1.502-.728-2.181-1.267-1.166-.919-1.65-2.535-2.795-3.681-.568-.566-1.168-1.642-1.707-2.783a.044.044 0 01-.008-.015c-2.951-8.276-4.723-6.999-7.576-9.853-2.85-2.857-3.993-5.139-2.282-10.849 1.597-5.319 3.879-9.057 7.805-14.404l.002-.002c1.079-1.425 2.574-2.667 3.32-3.244 1.649-1.269 3.121-2.877 4.382-4.66.764-1.077.04-2.332-2.158 0-.995 1.062-1.735 1.777-3.134 2.918-1.393 1.144-2.195.873-2.45.239-.254-.634.128-1.507.764-4.299.633-2.792 1.76-6.615 3.174-11.931a109.26 109.26 0 011.549-5.219l.004-.011c2.25-5.593 11.071-14.219 13.674-15.706 2.662-1.524-2.031-4.268-4.268-5.317-.434-.228-1.523 1.6-2.84 3.159-1.396 1.652-6.473 7.995-9.011 10.28-2.537 2.284-2.282 4.187-3.172 6.345-.888 2.158-1.269 3.424-2.284 5.837-1.016 2.411-3.681 6.6-5.204 9.52-1.521 2.917-4.692 9.263-6.093 11.801-1.393 2.539-.631 2.665.257 1.776.89-.887 2.284-3.171 3.556-4.948 1.267-1.777 2.791-4.823 4.06-7.107 1.265-2.284 3.425-7.234 4.316-9.646.888-2.411 2.157-4.695 3.172-4.569 1.012.128-.766 3.173-2.034 6.472-1.269 3.301-5.71 13.708-6.598 15.736-.888 2.033-2.916 7.742-4.693 10.408-.744 1.113-1.64 2.69-2.5 4.234l-.004.004c-1.157 1.95-2.225 3.742-3.023 5.084a.165.165 0 01-.041.046c-.888.672-2.154-.571-3.315-1.502-1.267-1.016-1.905-2.411-2.16-3.045-.252-.635 2.286-2.666 3.301-3.808 1.014-1.142 1.65-1.903 1.014-2.41-.63-.508-2.789 2.03-3.932 2.283-1.144.254-3.426 1.143-4.696.127-1.269-1.014-3.425-4.441-5.963-6.598-2.539-2.158-4.318-6.982-4.572-8.631-.211-1.401-.519-3.263-1.544-4.179a.162.162 0 00-.19-.019.161.161 0 00-.077.173c.198.933-.833 2.391-1.867 3.011-1.269.761.763 2.029 1.903 2.663 1.146.636-.507 2.54.254 3.048.764.507 2.285 2.411 1.906 3.68-.385 1.269-1.271 1.649-.253 2.157.967.486.545 2.709-.049 3.459a.161.161 0 00.004.205c.444.523 2.065 1.997 3.468 2.934 1.522 1.017 6.093 4.061 8.756 5.965 2.665 1.904 8.379 8.123 11.93 12.311 3.555 4.185 7.489 9.39 8.377 10.785.888 1.397 4.442 4.189 6.853 6.217 2.412 2.032 5.713 6.853 6.476 8.76.756 1.9 1.646 3.551.504 4.438-1.633 1.273-4.823.766-7.107.766-2.282 0-1.014 1.012 1.144 1.267 2.156.253 2.663.253 5.076.13 4.048-.218 7.648.521 11.488 1.717a64.78 64.78 0 016.084 2.244c.43.178 1.645.898 2.881 1.578 1.375.756 1.881 1.805-.215 2.608-1.877.72-4.42 1.685-7.293 2.765-4.193 1.573-8.911 3.16-13.451 3.805-3.554.51-9.773 2.539-6.982 3.3 2.733.744 5.099 2.463 3.534 4.56l-.014.016c-.383.396-.767.805-1.142 1.217l-.022.02c-1.465 1.097-3.242 2.377-5.023 3.327-1.432.765-5.199 2.79-7.234 3.808-2.026 1.015-4.156 1.834-6.976 1.521-2.284-.252-5.011-1.861-6.474-2.918-2.28-1.652-5.829-4.162-5.079-1.521.257.887 5.458 3.932 7.491 6.723 1.333 1.838 3.034 4.677 5.837 4.569 3.3-.126 8.502-3.805 7.742.89a.45.45 0 01-.013.08c-1.041 3.157-1.686 6.354-2.049 9.657-.006.063-.047.113-.107.135s-.123.007-.168-.039a195.077 195.077 0 00-5.083-4.979c-.004-.003-.008-.005-.01-.009-4.685-5.173-10.22-9.055-16.045-12.84-5.078-3.3-12.187-7.867-17.769-10.41-5.583-2.533-8.63-3.805-11.925-5.326a.063.063 0 01-.009-.004c-3.677-1.965-3.356-4.31-.502-4.501 3.421-.228 3.417-3.174 1.141-3.428-1.713-.188-3.809-.382-5.522-1.142-1.715-.761-2.171-3.562-1.33-5.52 1.141-2.666 3.234-3.808 5.712-4.569 2.471-.763 2.854-2.477 1.9-3.046-.95-.574-3.998-.193-5.709.765-1.713.95-3.616-.575-3.616-2.29 0-1.709 3.729-3.542 5.9-4.373 2.475-.955 2.092-2.285.764-2.285-1.337 0-3.621 1.139-5.142.378-1.522-.761-1.332-3.043.19-5.711 1.393-2.434-1.638-2.77-2.486-4.731a.158.158 0 01-.015-.064c-.004-2.269.19-4.812-.356-7.005-.377-1.525-1.709-5.331-3.043-7.044-1.333-1.711-4.38-4.187-4.761-5.33-.379-1.141-.95-1.901-1.708-4.18-.002-.005-.004-.009-.004-.014-.765-3.236-2.203-8.694-5.714-10.272-3.807-1.712-6.853-1.142-8.184.951-.542.853-.58 1.959-.365 2.829.002.009.004.017.004.026.247 3.116 1.125 6.121 1.125 7.614 0 1.522 1.141 1.333 2.663.381 1.522-.952 2.891-3.314 3.809-2.855 1.395.697 2.475-1.333 1.329-2.286-1.139-.951-2.033-1.073-3.615.193-1.888 1.512-3.466-1.208-3.166-2.901a.164.164 0 01.028-.068c1.274-1.723 4.604-1.282 6.372.684 1.717 1.903 3.999 6.472 4.191 8.756.017.217.055.391.096.529l.006.016c.332 1.624.646 2.055 2.371 3.264 1.905 1.33 4.38 5.71 5.328 8.565.955 2.855 0 6.092-.758 8.375-.711 2.127-1.088 6.072-1.135 7.066a.149.149 0 00.044.119c.031.033.071.05.116.05h.835a.163.163 0 00.16-.136c.109-.689.636-3.803 1.313-4.815.758-1.142.569 1.142.379 3.044-.185 1.838-.44 3.689-.84 5.492-.579 2.622-.638 5.95-2.016 8.311-.667 1.143-1.048 1.901-1.809 2.947-.741 1.024-1.481 3.213-.812 4.117a.14.14 0 01.024.049c.068.221.174.421.312.597 1.018 1.269 2.763 3.424.732 6.979-2.033 3.556-2.003 2.934.253 3.298 2.347.381 5.488 1.431 10.183 2.921 4.932 1.568 12.181 6.849 17.003 9.644 4.827 2.793 9.647 5.838 12.693 8.376 3.044 2.538 4.058 6.6-1.016 8.122-5.075 1.524 4.06 8.883 6.6 8.377 2.539-.508 3.044-5.074 2.282-8.377-.761-3.298.762-5.33 1.779-4.059 2.91 3.638 5.786 6.757 6.733 11.477.83 4.121 1.437 8.606-.137 12.634-1.368 3.503-2.744 5.541-5.187 5.048-3.851-.785-8.168-6.847-10.648-9.599a112.458 112.458 0 01-10.051-12.965c-3.281-4.913-6.52-9.898-10.283-14.464-5.207-6.326-9.688-2.469-15.578 2.328a.156.156 0 01-.13.035.151.151 0 01-.109-.074c-.46-.738-.556-1.384-.358-2.1.281-1.041.847-1.989 1.613-2.377a.076.076 0 00.022-.014c1.599-1.178 3.25-1.908 3.25-2.369 0-.762-1.527-.507-.257-4.314.685-2.039.298-2.943-1.609-3.801-3.119-1.4-6.828-3.019-10.829-3.302-2.271-.167-6.453.942-4.955 2.272.006.005.012.009.016.015 2.477 2.862 7.608 10.659 9.508 14.652 1.907 3.997 4.38 8.563 5.902 10.66 1.525 2.093 4.949 5.137 6.472 7.229 1.525 2.096 2.284 2.288 4.188 5.142.771 1.158 2.781 4.928 4.492 4.005 1.804-.966.907-10.037 1.983-12.19.567-1.145-.385-2.664-1.907-2.853-1.523-.192-3.425.76-4.949 1.708-1.523.955-2.471.191-4.949-1.52-2.005-1.388-3.513-3.531-4.416-5.512a.135.135 0 01-.015-.065c-.014-1.161.541-3.604 5.763-2.227 4.803 1.268 8.378 2.281 11.806 7.615 2.688 4.181 4.116 9.305 5.78 13.947 2.226 6.203 5.345 11.933 7.995 17.938 2.917 6.606 4.545 13.682 7.254 20.371 2.457 6.069 7.402 13.739 15.133 11.32 6.098-1.905 11.043-3.806 14.855-8.377 3.164-3.797 6.883-7.095 10.011-10.928 1.96-2.396 3.553-5.078 5.593-7.409 2.498-2.852 5.371-6.071 8.217-8.762.006-.007.014-.012.021-.017 1.045-.698 3.574-2.262 5.84-2.638a65.107 65.107 0 012.801-.067c2.793 0 6.6-.508 10.152-2.792 3.184-2.048 3.518-3.074 3.551-3.266a.132.132 0 000-.056l-.203-1.225a.16.16 0 00-.254-.105c-.611.438-2.375 1.209-2.588-4.231-.25-6.544-2.248-22.068 12.312-41.134a.158.158 0 00-.002-.199.159.159 0 00-.191-.048c-8.217 3.661-11.65 11.313-13.387 17.267-1.773 6.094-4.061 12.186-6.092 18.529-2.029 6.344-4.311 12.939-8.877 16.999l-.012.011c-.008.008-.016.015-.023.025-1.396-.168-2.662-.393-3.521-.538-.732-.119-2.621-.704-4.732-1.396a.257.257 0 01-.061-.036c-1.562-1.483-.859-4.085 1.748-6.69 3.172-3.176 13.176-20.472 13.914-21.752a.162.162 0 00.004-.154l-.834-1.662a.153.153 0 00-.145-.089.156.156 0 00-.143.09c-12.365 24.592-21.444 25.34-24.981 24.329-3.555-1.014-5.243-2.47-.257-3.552 5.818-1.265 8.865-2.782 15.417-9.072a.158.158 0 00.047-.157l-.416-1.646a.152.152 0 00-.115-.116.157.157 0 00-.158.044c-2.383 2.489-7.562 5.413-12.743 7.141-5.33 1.777-5.585.842-5.585-.762 0-1.016 1.523-3.047 6.092-7.107 4.234-3.761 17.615-16.672 19.56-18.552a.154.154 0 00.041-.166.152.152 0 00-.129-.11l-1.379-.199a.155.155 0 00-.125.035c-1.102.918-18.343 15.3-22.028 18.74-3.808 3.554-7.359 4.821-5.586 1.014 1.752-3.755 7.945-13.674 14.93-20.277a.16.16 0 00.039-.178.158.158 0 00-.15-.102h-2.086a.158.158 0 00-.073.018c-7.606 3.837-16.214 19.531-17.228 23.838-1.015 4.318-3.581 4.107-3.046.764 1.271-7.871 5.15-16.493 8.886-21.828 3.551-5.076 13.956-12.945 20.557-16.241 6.598-3.302 8.631-3.557 13.449-6.093 4.824-2.537 7.869-1.777 10.916-.762 3.043 1.016 6.6 1.268 9.135-1.016 2.539-2.285 4.57-4.821 8.887-6.344 4.316-1.524 5.076-1.27 6.598-.763.963.322 2.197.479 3.256-.417a.12.12 0 01.049-.029c.18-.065.357-.165.52-.309 2.25-1.998 7.676-4.467 12.635-2.3a19.714 19.714 0 001.039.423c1.279.663 2.447 1.51 3.057 2.122l.008.007c2.027 1.771 2.531 2.789-.004 4.056-2.533 1.269-4.822 2.793-6.092 4.567v.003c-1.59 2.294-2.66 6.686-4.822 6.341-2.119-.336-1.066-8.441-1.018-11.711.002-.053-.021-.098-.062-.13s-.092-.042-.143-.028l-2.529.688a.166.166 0 00-.086.06c-.414.552-4.607 6.126-6 7.634-2.607 2.838-5.326 4.001-8.18 5.139a101.306 101.306 0 01-5.01 1.863.159.159 0 00-.107.18c1.051 6.152.783 19.205-1.738 26.259-2.434 6.818-3.467 13.867-4.443 17.567a.158.158 0 00.062.175.163.163 0 00.184.001c.775-.53 2.777-1.686 6.229-2.261 4.572-.764 7.359-1.524 13.449-2.539 6.094-1.016 9.393-2.03 13.707-1.269 4.314.763 8.123.51 11.166 1.521 2.773.926 8.271 7.512 9.244 8.698a.157.157 0 00.141.059.154.154 0 00.127-.086c.457-.857 1.936-4.156-1.137-6.134-3.553-2.281.768-1.521 3.301-.759 2.539.759 6.727 3.933 7.742 6.979 1.014 3.044 3.713 7.614 4.188 14.084.373 5.092 1.785 16.249 2.291 21.322.508 5.077 5.838 20.303 5.838 24.621 0 4.313.508 12.181.508 14.719 0 2.535-1.24 9.392-.73 10.915s2.502 7.105.979 11.928c-1.523 4.823-2.285 10.025-3.807 14.338-1.523 4.313-.764 8.369-.002 10.91l.002.015c.266 1.315 3.674-.136 3.299-1.399l-.004-.009c-.062-.18-1.961-5.593.461-10.802a.16.16 0 01.193-.087c.281.088.871.506.871 2.475 0 2.58 2.287 5.877 6.344 5.37 4.064-.504 1.021-2.535 0-6.852-1.016-4.314-2.133-11.927 0-19.798 2.137-7.867 2.031-27.919.891-35.023-1.141-7.108-3.172-18.021-4.443-21.07-1.266-3.044-1.266.768-1.266 6.096v15.48c0 3.045-2.107-7.623-2.539-15.737-.51-9.515-.51-19.795 1.523-26.647 1.939-6.549 2.488-10.085 2.533-10.387a.14.14 0 000-.041c-.047-.421-.857-7.003-4.623-11.431a.154.154 0 01-.027-.163.161.161 0 01.133-.103c3.072-.371 6.07.792 6.732 3.286a.162.162 0 00.121.115.152.152 0 00.158-.051c1.684-1.913 4.041-3.412 5.578-3.395a.163.163 0 00.101-.292c-2.342-1.78-6.131-2.717-9.691-3.429-3.809-.763-6.346-1.52-7.869-2.03-1.521-.508 3.807-.508 6.598-1.269 2.793-.762 8.377-.507 10.658.252 2.289.764 4.316-1.269-.25-2.284-4.568-1.015-15.992-1.776-21.066-1.265-5.078.505-11.424 1.013-18.277 2.535-6.852 1.522-18.525 1.27-23.855 1.522-5.328.255-11.676 1.522-14.213 0-2.541-1.522-3.555-6.347-3.555-8.628 0-2.285.508-7.614 2.283-12.184 1.045-2.685 3.52-6.736 4.615-10.133l.002-.01c.465-1.79 2.875-3.184 6.055-2.923 7.457.615 15.795 1.435 23.09 1.896 11.928.761 30.199 2.794 39.336 5.583 9.141 2.79 13.453 3.047 17.262 3.556 3.807.511 9.641 2.03 11.168 5.077 1.521 3.046 3.803 5.073 3.551 12.435-.252 7.364-.762 13.199-1.775 16.751-1.018 3.553-1.775 8.631-1.775 15.738 0 7.104-1.27 23.35-2.543 32.23-1.266 8.886-4.568 21.32-5.834 28.427-1.271 7.106-2.029 23.352-1.271 29.19.764 5.836 1.271 10.404 5.076 14.717 3.809 4.317 6.094 9.14 9.139 11.933 3.041 2.795 6.092 5.583 10.404 8.121 4.314 2.537 5.838 4.062 7.617 4.821 1.068.457 1.955 1.012 2.715 1.546l.006.004c.451.337.9.672 1.34.985 1.016.766 4.82.766 4.82 2.288 0 1.303-.463 1.955-.598 2.116a.17.17 0 00-.037.098c-.047 1.307-1.713 2.752-3.938 1.314a.158.158 0 00-.127-.021c-2.037.521-4.758-.363-5.938-1.455a.157.157 0 00-.188-.022c-1.488.839-3.645.3-5.479-1.456a.16.16 0 00-.236.013c-.881 1.042-3.414 1.523-5.605.428-2.283-1.141-3.809-2.094-5.711-2.094s-9.133-1.33-13.512-3.234c-4.379-1.907-9.141-5.711-12.758-7.424-3.299-1.564-9.934-4.556-12.799-5.501-.275-.093-.656.103-.525.616 1.295 5.076 3.969 10.453 8.758 14.213 4.426 3.475 11.107 4.544 16.559 4.948 10.283.762 18.658 3.047 22.463 3.807 3.809.761 12.562 3.425 15.609 3.804 3.033.385 7.947-.746 7.621-2.071a.13.13 0 01-.006-.038v-.859a.153.153 0 00-.057-.123l-2.143-1.857a.16.16 0 01.162-.272c.863.312 2.186.793 2.801 1.036.861.347 2.986 2.267 3.363 2.612.041.034.057.08.053.132l-.363 4.744a.159.159 0 00.109.166l4.434 1.477a.135.135 0 00.033.009l3.641.365a.162.162 0 01.146.161v6.169a.156.156 0 01-.012.059c-1.434 3.661 2.752 7.476 4.395 10.619.355.674.574 1.222.777 1.66a.166.166 0 01-.008.149.167.167 0 01-.127.08 43.2 43.2 0 01-3.959.125.16.16 0 01-.039-.005c-1.789-.474-3.572-1.092-5.342-1.422-1.83-.339-5.592-.706-6.039-2.959a.166.166 0 01.076-.171c1.477-.882 4.365-1.884 4.408-3.228v-.014c-.059-1.061-5.102-1.318-5.252-2.079a.114.114 0 01-.002-.045c.256-3.21 2.367-6.013 1.77-9.378a.17.17 0 00-.045-.086l-.568-.567a.153.153 0 00-.135-.046.154.154 0 00-.121.081c-2.621 4.613-3.475 6.873-8.709 7.192a.165.165 0 01-.137-.059c-1.146-1.386-2.244-2.599-2.984-3.154-2.285-1.712-13.482-11.556-16.561-7.995-2.5 2.894-5.139 6.853 1.715 7.423 6.852.572 13.705 7.423 9.139 8.566-4.572 1.142-8.566-3.428-13.705-7.423-5.141-3.999-10.279-3.999-11.424 1.143-1.143 5.137-2.285 9.136 4.568 6.853 6.855-2.286 9.137 1.138 3.998 2.854-5.141 1.715-9.139 3.997-11.992 1.144-2.854-2.859-5.055-11.181-7.641-12.843-7.109-4.564-17.512-7.485-24.367-17.767-.314-.47-.609-.886-.881-1.253l-.01-.016c-2.354-4.037-4.393-9.846-4.789-18.947-.574-13.133-.574-30.835 0-33.691.57-2.855 3.045 2.002 5.707 3.998 4.943 3.703 4.617-4.98 4.551-6.174a.16.16 0 00-.141-.15c-4.469-.609-6.154-3.482-9.547-13.662-3.424-10.276-10.279-31.406-20.559-59.961-3.484-9.685-12.561-10.844-8.566-2.855 3.996 7.999 10.281 22.846 14.273 31.41 4.004 8.568 5.145 23.413 7.998 35.978 2.855 12.559 3.996 26.267 2.285 36.545-1.715 10.277-3.775 13.805-6.279 17.699-2.418 3.752-1.713 5.14 4.564 8.567 4.41 2.402 7.41 6.211 10.189 9.059a.16.16 0 01.025.193.158.158 0 01-.18.077c-13.053-3.202-22.258 5.638-31.766 13.108-6.209 4.879-14.684.536-19.414-4.187-5.83-5.821-9.141-11.423-14.467-19.034-2.545-3.639-6.822-5.802-15.23 0-8.578 5.913-18.803 8.774-31.223 4.355l-.019-.007c-18.212-9.047-35.603-20.076-50.505-36.372-12.181-13.327-31.705-41.457-37.795-51.354-6.091-9.899-11.803-21.319-12.943-26.651-1.144-5.328-3.047-12.716-3.047-15.989 0-3.045 0-9.134.378-12.942.383-3.791.871-5.729 5.713-8.755 3.046-1.906 6.093-.384 7.615 3.423 1.52 3.812.76 6.092-1.522 9.9-2.284 3.81-1.144 12.945 1.522 9.519 2.646-3.403 7.918-8.679 10.602-11.363a.157.157 0 00.047-.139c-.859-5.683-13.095-16.846-19.222-21.11a.16.16 0 00-.145-.02.157.157 0 00-.102.105c-1.24 4.01-5.711 5.152-9.454 7.396-3.811 2.289-4.568 22.846 1.904 41.119 6.468 18.273 25.621 50.948 51.772 80.331 20.563 23.097 48.861 37.182 67.389 45.053 17.551 7.45 33.482 10.273 37.309 10.911 9.137 1.522 13.326 1.905 19.799 2.664 5.867.688 13.703-2.283 15.607-4.566 2.781-3.341 4.947-7.855 9.371-9.192 4.295-1.299 9.336-.86 13.66.003 3.811.76 6.852 2.907 10.852 4.999 2.924 1.532 6.607-.323 5.504-3.386a.159.159 0 01.043-.172.156.156 0 01.174-.03c2.635 1.153 4.619 1.85 6.111 3.041 2.855 2.286 3.424 2.286 2.855 6.853-.283 2.277-.854 4.837-.926 6.902a.164.164 0 01-.084.135.16.16 0 01-.158 0 36.31 36.31 0 01-1.336-.777c-6.83-4.176-13.656-3.433-17.846-2.296a.144.144 0 00-.08.052c-1.932 2.244-7.236 2.244-13.293 2.244-4.311 0-7.1-.392-10.113-2.099a.165.165 0 01-.072-.082c-.344-.893-.328-1.98-.121-3.113a.157.157 0 01.105-.124.157.157 0 01.158.028c1.654 1.391 4.742 2.809 5.979 2.533 2.287-.505 4.572-2.283 5.84-1.017 1.777 1.778 4.568 1.525 6.092-.757 1.467-2.199 3.883.447 4.264.888a.16.16 0 00.133.057c1.102-.066 13.096-.838 12.607-2.534-.506-1.775-4.449-4.581-12.496-7.105-7.623-2.391-13.016-1.146-14.982-.501a.163.163 0 00.049.318c4.408.07 11.277.686 13.473 2.467 1.146.935 1.523 3.3.506 3.807-1.016.509-2.531.762-2.791-2.271 0-.01 0-.018-.004-.026-.139-.551-1.049-.455-.869.194 0 .006.002.012.006.017.494 1.274-.912 3.864-2.939 3.864-2.031 0-3.145-1.732-3.299-4.204-.051-.761-1.572-.806-1.523.143.143 2.95-1.525 3.806-4.822 4.062-2.713.21-4.047-1.464-4.58-2.916a.099.099 0 01-.01-.032c-.24-1.615 1.984-3.255 2.715-4.155a.154.154 0 00.008-.194c-.041-.061-.115-.084-.184-.061-4.826 1.657-6.611 6.481-10.189 9.178a.208.208 0 01-.033.021c-2.357.998-5.305 2.133-8.834 3.113l-.01.002c-5.102 1.099-11.275 1.453-16.51 1.453-1.902 0-3.619-1.712-4.566-2.476-.957-.757-3.051-1.331-5.523-1.524-2.475-.189-3.426-.378-5.9-1.33-2.475-.951-4.57.764-6.854 2.477-1.465 1.096-3.398 1.486-5.695 1.581-.01.001-.018 0-.027-.001a16.24 16.24 0 00-.562-.058c-19.076-1.733-37.166-13.461-53.566-22.619a.015.015 0 01-.008-.004c-10.361-6.518-20.497-13.524-30.406-20.448-22.973-16.045-38.826-38.596-54.338-61.494-5.334-7.871-15.685-18.536-19.548-21.833-4.315-3.678-7.458-4.735-10.15-4.566-2.03.127-2.88 2.704-4.676 2.24-1.796-.463 1.204-4.126 2.39-6.301 1.526-2.794 2.286-7.361.256-6.599-2.031.76-2.031-1.523-.759-4.57 1.27-3.048 3.045-11.295 3.045-11.295s.908-4.412 2.535-13.325c1.901-10.375 4.048-19.115 8.087-25.833a.158.158 0 00.021-.118c-2.246-10.048-.746-16.856 9.212-19.677a.156.156 0 00.105-.092.156.156 0 00-.007-.141c-2.211-4.061-2.942-9.948-3.964-12.512-2.007-5.011-3.022-11.26-5.361-24.961a.162.162 0 00-.144-.133.156.156 0 00-.166.098c-10.918 26.115-17.682 53.681-17.682 74.105 0 20.558-3.042 25.129-3.803 33.883-.768 8.757.379 28.553.761 35.788.022.467.046.915.068 1.352 0 .005.002.009 0 .014-.181 5.934-1.8 11.126-5.149 16.148-2.34 3.514-6.628 8.464-9.834 12.022-1.735 1.928-2.25 4.808-4.169 6.747-3.146 3.164-8.46 3.659-12.601 4.778-3.614.973-7.232 1.937-10.831 2.965-4.206 1.202-13.618 2.514-21.18 3.567-7.289 1.017-11.188 1.574-13.169 2.17-3.854 1.154-6.442 3.942-7.29 7.841a15.808 15.808 0 00-.316 3.274c0 3.319.153 6.649.282 9.967.047 1.288.162 2.56.484 3.808.196.741.446 1.467.769 2.16.208.446 1.076 1.455 1.076 1.905v38.792c0 .045.018.083.05.114.03.031.069.048.113.048l6.346-.029c1.415-.008 139.359-.691 174.498-.093.022 0 .041.005.062.015 2.744 1.231 6.409 1.184 13.1.967 1.921-.066 3.907-.129 5.705-.129 6.087 0 7.619.352 8.995.81 2.799.933 5.36.393 7.622-.082 1.695-.357 3.454-.728 5.85-.728h22.844c3.342 0 7.125-.222 10.787-.441 4.328-.258 8.805-.521 11.621-.335 1.26.083 2.867.26 4.73.463 6.191.673 14.672 1.595 23.422.659 9.016-.968 16.119-3.461 20.812-5.418a.16.16 0 01.166.024c3.354 2.786 9.135 4.443 14.879 4.443 6.551 0 12.346-.546 16.301-3.33a.163.163 0 01.061-.026c3.158-.634 7.363-.648 11.482 1.867 6.668 4.078 10.5 4.147 14.766 2.564a.152.152 0 01.105-.002c6.432 2.042 13.549 1.293 19.971-2.08a.152.152 0 01.125-.009c8.594 2.861 15.838 3.457 22.008 1.81a.159.159 0 01.072-.002c12.816 2.432 22.531 2.708 28.945.815a.149.149 0 01.076-.004c8.428 1.643 17.043 1.663 17.432 1.663h3.055a.156.156 0 00.127-.061l10.812-13.657a.165.165 0 00.033-.124l-.385-2.683c-.352-2.465-1.625-8.502-5.863-11.323-1.26-.842-3.934-2.487-6.225-3.88a.156.156 0 01-.074-.168c.963-5.289 3.754-20.646 4.061-22.332a.16.16 0 00-.123-.187l-5.83-1.379c-.57-.135-13.201-3.113-23.248-4.149a.152.152 0 01-.082-.035 86.922 86.922 0 00-2.855-2.168.155.155 0 01-.066-.147.158.158 0 01.092-.131c2.801-1.33 5.447-2.963 7.525-4.916a.155.155 0 01.168-.033c1.855.724 3.465 1.309 4.869 1.82 2.754.996 4.576 1.656 6.111 2.578 2.992 1.797 7.672 3.197 13.775.776a.15.15 0 01.102-.008c1.707.456 3.318.581 4.486.579.02 0 .035.002.055.008 9.17 3.066 14.031.159 16.143-1.948l1.236-1.238a.143.143 0 00.041-.075l.424-1.696c.166-.665.25-1.321.25-1.958-.008-2.287-1.085-4.366-3.221-6.196zM174.812 136.276a.159.159 0 01.123-.102c.45-.086 1.624.099 2.367.965.222.26.57.876.653 1.339.097.532-.235 1.831-.272 1.305-.03-.437-.208-1.05-.569-1.594a.158.158 0 00-.188-.063.16.16 0 00-.107.169c.107.99-.507 2.321-1.163 2.966a.158.158 0 01-.188.028.158.158 0 01-.085-.171c.17-.99.047-1.761-.209-2.33.132.065.284.195.436.377a.161.161 0 00.28-.058c.061-.211.138-.474.14-.701.01-.637-.228-.963-.562-1.317-.192-.202-.468-.454-.628-.657a.158.158 0 01-.028-.156zm-2.789 8.025c.577-.766.92-1.419 1.103-2.533v-.003l.113-.779v-.009a7.06 7.06 0 00.026-.593.162.162 0 01.306-.074c.606 1.127.904 2.469-.164 3.719.015-.123.028-.259.041-.399a.16.16 0 00-.115-.169.16.16 0 00-.188.076c-.228.408-.529.76-.904 1a.163.163 0 01-.218-.236zm-26.038-12.518c.192-.572.671-1.046.952-1.333.114-.117.392-.376.678-.644a.165.165 0 01.072-.04c.335-.083.678-.159 1.023-.229a.158.158 0 01.167.072.156.156 0 01-.005.183c-.178.239-.362.5-.573.78-.369.491-1.362 1.314-2.109 2.109a.158.158 0 01-.09.049l-.021.004c-.378.097-.283-.38-.094-.951zm12.27 13.084l.018.006c.49.227 1.059.479 1.654.733a.16.16 0 00.19-.049.158.158 0 00.002-.197 6.614 6.614 0 00-.183-.231.165.165 0 01-.002-.2.16.16 0 01.194-.049c.505.223 1.14.41 2.404.261a.164.164 0 01.174.107.162.162 0 01-.07.191c-.352.216-.708.423-1.13.468a.157.157 0 00-.121.079.164.164 0 00-.012.146c.091.214.238.375.427.77a.161.161 0 01-.042.193.16.16 0 01-.198.009c-.682-.475-1.571-.604-2.155-.998-.66-.44-1.15-.949-1.715-1.425l.565.186zm1.295 2.604a.16.16 0 01.14.142.157.157 0 01-.104.171 2.14 2.14 0 01-1.419.059c-.543-.153-.965-.52-1.5-.626a.16.16 0 01-.129-.141.16.16 0 01.093-.166c.128-.058.275-.106.428-.121.577-.051 1.437.55 2.491.682zm-4.331-16.354c.504 1.09.291 1.245 1.453 1.047.077-.012.142-.029.208-.044l.022-.003c.722-.068 1.51-.21 2.246-.682l.004-.002a2.73 2.73 0 01.219-.115c.249-.083.507-.155.772-.219l.008-.001c.825-.159 1.634-.228 2.448-.143l.017.003c.662.139 1.016.397.373.478a1.623 1.623 0 00-.183.034l-.026.004c-1.151.09-2.312.451-3.279 1.42-1.783 1.778-2.195 4.595-2.355 5.567-.16.97-.807.322-.971-1.942-.16-2.263.507-2.992.993-3.64.486-.647-1.474-.762-2.104.92-.637 1.695-.831 2.235-1.153 3.369-.322 1.131-.486 3.558-.158 4.043.484.73 1.163 1.378 1.962 1.743l.014.007c.218.126.477.261.785.406a.16.16 0 01.089.182.161.161 0 01-.156.127c-.277 0-.521.019-.584.061-.377.24-.026.526.396.763a.16.16 0 01.077.188.159.159 0 01-.166.115c-.458-.033-.912-.026-1.121.062a.168.168 0 00-.093.102.16.16 0 00.021.136c.161.249.707.641.809 1.151a.156.156 0 01-.053.154c-.303.264-.769.345-1.03.643a.163.163 0 00-.03.16.153.153 0 00.122.106c.241.045.502.126.685.263l.01.006c.003.005.011.009.017.014a.164.164 0 01.021.217c-.164.222-.46.308-.688.384-1.905.634-3.439-.59-5.488-.334-3.048.383-4.442-.633-3.553-3.045.441-1.197 2.341-2.728 3.553-3.933 1.773-1.777-.367-3.348-2.221-4.062-1.498-.574-1.586 1.761-.951 2.285.825.683 1.087 1.579.507 2.286-.746.902-1.605 2.283-2.647 4.948-.561 1.418-2.311 2.335-3.572 2.335-.633 0-2.282-1.319-1.903-3.223.383-1.902 1.649-2.663 2.914-3.297l.008-.003.003-.001a.158.158 0 01.048-.015c.217-.033.454-.044.714-.032.019 0 .034.004.051.011.745.29-.979.876-1.455 3.369-.301 1.598.03 3.431.62 1.712.573-1.665 1.572-3.473 2.522-4.044.671-.4.832-.487.938-1.146l.001-.007c.057-.495.123-.615.585-.754.006-.001.009-.003.013-.005.221-.087.403-.27.296-.586a.193.193 0 00-.022-.043c-.771-1.057-1.387.501-2.158.653-.88.172-1.634-.012-2.143-.558-.01-.009-.017-.016-.028-.023l-.004-.003c-.529-.77-1.478-1.551-1.886-1.699-1.396-.51-2.144.476-3.934 4.06-1.395 2.793-.635 4.441-1.018 4.696-.377.254-2.535 1.523-2.411-1.014.129-2.539.764-4.949-.888-4.062-1.82.979-3.3 2.919-2.795 4.568a10.112 10.112 0 001.143 2.478.161.161 0 01-.092.245c-.886.246-1.464.511-1.937-.311-.472-.825-.504 1.854 1.121 2.238a.16.16 0 01.124.131.167.167 0 01-.073.164c-.973.613-1.755.476-2.436-.116-.003-.003-.005-.006-.011-.009-.509-.371-1.386.512-.756 1.02.484.387 1.267.998 1.949 1.094.069.01.124.062.137.131a.162.162 0 01-.083.171c-1.588.862-3.049-.511-3.049.824 0 .944-.091 1.797.931 2.368a.15.15 0 01.04.03c.482.512 1.453 1.47-.18 1.22-1.648-.255-2.155.632-1.519 2.282.334.87-.32 1.986-1.014 2.847a.162.162 0 01-.283-.063c-.373-1.486-.544-2.971-.544-4.117 0-2.092 1.144-3.427 1.522-6.472.379-3.046-.571-2.666.571-6.661.74-2.585 2.35-3.818 4.225-4.675 3.031-1.389 4.075-2.786 5.782-4.91 4.124-5.123 7.426-5.632 10.105-6.307a.16.16 0 01.172.062.163.163 0 01.006.182c-.308.485-.517.982-.557 1.432-.062.692.539 1.461.729 1.747.614.924 1.4.433 2-.119.844-.775 1.843-1.396 2.825-1.979.648-.384 1.111-.884 1.587-1.429.535-.614 1.204-1.163 2.299-.974 1.03.179 1.663.739 1.949 1.358zm147.552-32.359c-1.014 1.775-2.914 3.423-5.709 5.456-2.793 2.029-5.455 2.79-6.982 3.045-1.516.253-3.422.126-5.199-1.269-1.777-1.396-4.314-3.426-8.246-6.598-3.938-3.173-5.588-5.713-8.123-9.647-2.539-3.931-3.426-7.613-3.555-9.644s-.48-4.31-.859-7.1c-.385-2.792-.1-5.681.672-7.508.838-1.988 1.203-3.666 1.711-5.317.506-1.649.148-2.496 2.281-3.426 2.92-1.268 9.27-2.409 12.059-2.663 2.793-.254 4.824 1.396 6.725 3.552 1.904 2.158 5.332 4.314 7.107 6.345s2.662 6.726 2.789 8.375c.131 1.65 1.273 3.554 2.287 4.061s1.902 1.904 2.664 2.537c1.73 1.443.379 5.585 1.014 10.66.636 5.079.384 7.364-.636 9.141zM424.666 234.1c-2.898-2.58-3.092-6.981-6.391-9.256-.988-.681-2.15-1.263-3.379-1.734-.01-.004-.018-.007-.025-.012-2.76-1.643-3.701-3.375-3.225-4.519a.136.136 0 01.057-.071 4.67 4.67 0 00.162-.113.089.089 0 01.035-.021c1.42-.601 2.436-1.271 3.824-1.6.012-.002.018-.004.029-.004 3.756-.18 7.684.457 11.205 1.77 3.178 1.189 5.572 3.609 8.363 5.473 1.605 1.069 3.311 1.863 4.605 3.524 1.418 1.821 2.795 3.479 4.529 5.036 1.541 1.389-.352 2.785-1.611 3.139-1.74.487-3.723-.093-5.346-.744-3.58-1.439-6.033-4.691-9.383-6.565a.174.174 0 01-.045-.036l-2.709-3.219a.161.161 0 00-.184-.047.163.163 0 00-.102.16c.055.855.16 2.535.16 2.558.119 1.841 3.646 1.993 3.697 4.093.048 1.971-2.721 3.561-4.266 2.188zm9.631 7.716a.159.159 0 00-.102.155l.182 7.135a.14.14 0 01-.01.057c-.9 2.677-2.273 3.473-4.479 2.957a.158.158 0 01-.123-.124l-1.033-5.003c-.002-.016-.004-.031-.002-.049.146-1.452.123-3.204.121-3.322 0-.004 0-.008.002-.014.188-2.846.002-6.82 2.643-6.843a.16.16 0 00.043-.006c.203-.058 2.016-.444 2.629 3.517.01.064.055.115.117.132 1.508.404 3.881 1.686 6.443 3.507a.16.16 0 00.213-.025l1.297-1.461a.155.155 0 00.041-.131.165.165 0 00-.078-.115c-.537-.322-2.211-1.354-2.689-1.994-.518-.693.543-2.174 2.324-2.286a.158.158 0 01.104.029c1.289.907 2.33 1.58 2.838 1.845a.167.167 0 00.135.006c1.287-.504 2.896.21 2.973 1.809a.16.16 0 00.125.15c.326.079 1.289.373 2.502 1.273a.146.146 0 00.094.031c2.141.018 3.092 1.044 3.016 1.959-.006.08.045.15.121.17 3.742.936 6.893 1.714 6.139 4.344-.559 1.957-4.615 1.857-8.992.46a.157.157 0 01-.109-.145l-.029-.437a.166.166 0 01.047-.125 60.86 60.86 0 002.145-2.271.16.16 0 00.016-.198c-.043-.062-.119-.087-.189-.062-1.162.42-2.723.682-3.354.682-1.244 0-1.635-1.066-2.115-2.383a.157.157 0 00-.158-.106.16.16 0 00-.148.118l-.811 2.916a.138.138 0 01-.02.045c-1.703 2.631-4.576 3.561-8.262 2.573a.161.161 0 01-.113-.109l-2.26-7.397a.18.18 0 00-.033-.059l-1.016-1.16a.164.164 0 00-.185-.045zM192.918 466.667a.158.158 0 01-.146.092c-34.559-.436-134.965-.022-163.464.109a.158.158 0 01-.149-.102l-7.465-18.49a.13.13 0 01-.013-.062v-.051a.16.16 0 01.18-.161l5.824.615a.16.16 0 01.128.089l5.264 10.522c.02.038.05.064.089.079l5.729 2.15a.16.16 0 00.211-.195l-6.93-24.257a.154.154 0 01.021-.136.154.154 0 01.118-.068c28.173-2.922 43.582-4.41 63.84-5.886 21.926-1.595 51.861-.993 67.023 3.212.03.009.055.023.075.047.398.44 1.092 1.559 1.427 3.563.857 5.13 3.609 10.36 6.854 13.013 2.699 2.208 5.277 2.999 7.343 3.633 1.564.477 2.695.824 3.616 1.627 1.335 1.169 2.784 2.002 4.062 2.734 2.085 1.194 3.289 1.938 3.82 3.269.752 1.885 1.617 3.333 2.523 4.482a.156.156 0 01.02.172zm258.928-43.581a.16.16 0 00.09.039c9.312.724 22.615 3.787 24.166 4.147a.162.162 0 01.123.187l-3.764 20.678a.16.16 0 00.078.168c.885.532 7.67 4.61 9.805 6.036 2.129 1.417 2.938 6.147 3.037 6.78a.15.15 0 01-.035.126l-3.221 4.069a.172.172 0 01-.07.052c-1.393.516-2.787.861-4.273.526a7.64 7.64 0 01-2.723-1.247l-1.4-1.226-.014-.011c-.203-.222-.4-.455-.586-.694a.157.157 0 01-.023-.16.164.164 0 01.131-.099l2.494-.313a.186.186 0 00.039-.01l5.191-2.038a.158.158 0 00.1-.176c-.092-.577-.549-2.871-1.885-2.537-1.518.381-3.043.953-3.992 2.283-.875 1.219-2.381.847-2.635.774a.14.14 0 01-.062-.036l-3.58-3.225a.152.152 0 01-.051-.15.148.148 0 01.102-.12l7.262-2.721a.161.161 0 00.104-.152v-1.118a.155.155 0 00-.094-.146c-3.512-1.62-6.029-4.993-6.348-5.43a.17.17 0 01-.029-.105l.188-3.175v-.006l.146-6.325c0-.007 0-.012.002-.018a43.41 43.41 0 00.293-2.536c.277-3.124.172-4.182-2.781-4.82-.004-.001-.01-.002-.014-.005l-16.902-5.301a.159.159 0 00-.162.04c-1.375 1.353-2.617 1.076-1.953 3.357a.154.154 0 00.105.108c1.959.624 3.422 1.276 5.07 2.366a.164.164 0 00.237-.066c1.047-2.231.572-2.847 3.135-1.453 1.545.846 3.02 1.614 4.895 2.402 1.42.596 3.557.84 3.553 2.354-.004 2.279-.529 5.282.223 8.747a.16.16 0 00.174.127c.006-.002.014-.002.02-.003l-.035 1.377c0 .022.004.042.012.062l.701 1.755a.163.163 0 01-.062.196c-1.217.781-4.137-.663-5.979-1.031-1.707-.342-1.27-2.065-.201-2.688.057-.033.086-.092.078-.157s-.049-.117-.111-.137c-2.344-.744-5.539-2.308-7.807-3.493-.008-.005-.016-.009-.021-.014-.162-.121-.33-.24-.506-.362-2.195-1.522-9.184-3.342-13.125-7.324a.156.156 0 01-.035-.056c-.4-1.023-.018-1.891 2.002-3.413 1.609-1.216 1.977-.984.68-2.528-.889-1.065-2.842-1.841-4.053-2.482a.157.157 0 01-.088-.131c-.209-2.876-4.156-4.649-4.305-7.087a.16.16 0 01.074-.146c1.52-.99 4.389-.578 6.953-.26a.182.182 0 01.055.017c5.628 2.956 11.091 7.525 11.607 7.958zm35.4-14.611a.16.16 0 01-.18.123c-1.008-.128-2.158-.417-3.121-1.031a.16.16 0 00-.166-.004c-2.658 1.505-6.43 2.97-10.193.71-2.16-1.298-4.447-2.104-7.623-3.256l-.021-.009a8.7 8.7 0 00-.604-.288c-5.727-2.491-12.676-7.177-17.012-8.314a.162.162 0 01-.121-.159c0-.075.053-.139.125-.154l.004-.002c1.91-.442 6.619-.99 8.777-.128 3.438 1.373 5.943 2.158 9.242 3.936 1.205.648 3.553 1.522 5.582 3.555 1.449 1.442 6.85 3.299 8.631 2.79 1.777-.51 3.299.252 4.824 1.271.393.264 1.027.526 1.75.771a.158.158 0 01.106.189zM273.057 82.537a.163.163 0 00-.111-.103.151.151 0 00-.146.036c-.846.75-2.66.692-3.928.04a.162.162 0 00-.227.199l.088.24c.008.024.02.043.039.061 1.119 1.089 2.939 1.167 4.408.243a.16.16 0 00.066-.192l-.189-.524zm11.925-11.751c1.576-1.403 5.717-2.125 9.277-2.606a.163.163 0 00.141-.159.162.162 0 00-.139-.161c-5.174-.759-10.787 1.068-11.83 3.019a.16.16 0 00.025.187c.251.265 1.122.966 2.526-.28zm-1.011 2.156a.156.156 0 00-.041.165c.018.06.068.101.129.11.598.094 1.018.445 1.018.937 0 .405.234.952.375 1.243.023.048.064.08.119.089a.16.16 0 00.143-.045l.779-.779a.118.118 0 00.035-.057c.574-1.524 1.057-2.667 1.725-3.336.645-.648-2.341-.233-4.282 1.673zm-3.035 19.307c.676.191 2.602.972 3.371 1.071.77.096 1.574-.363 1.67-1.037.096-.671.641-1.08 1.504-1.273.836-.184 1.404-.917 1.615-1.918a.162.162 0 00-.076-.173l-.186-.111c-.045-.025-.092-.03-.139-.014s-.08.049-.098.096c-.152.406-.74.773-1.404.856-.773.097-1.539.578-2.115 1.249a.055.055 0 01-.006.008c-1.365 1.813-3.5.968-4.787.382-.059-.026-.123-.018-.172.023s-.068.103-.053.164c.118.47.876.677.876.677zm7.699-16.938c-.766-.084-1.309.133-1.689.52a.156.156 0 00-.045.134.149.149 0 00.076.119l.219.132a.154.154 0 00.164.001c.311-.181.936.026 1.307.052a.158.158 0 01.115.061c2.186 2.76 5.701 1.029 7.582-2.618a.162.162 0 00-.059-.213l-.246-.148a.158.158 0 00-.195.021c-3.802 3.645-6.368 2.034-7.229 1.939zm-135.907 57.9c-.14 1.189-.175 3.392.302 3.249.473-.143.488-.918.63-1.679.143-.761.463-1.19.175-2.095-.283-.903-1.007-.28-1.107.525zm115.057-56.575a.164.164 0 00-.129-.139c-.852-.172-1.77-.677-2.199-.935a.153.153 0 00-.162-.001.156.156 0 00-.082.143c.012.553.057 1.745.236 2.43.01.042.035.075.072.098l.41.247a.153.153 0 00.135.015.158.158 0 00.098-.093 3.024 3.024 0 011.529-1.6c.065-.03.1-.095.092-.165zm7.379 2.285c-.328-.147-1.393-.557-1.641.239-.283.937-3.531 1.875-5.742.953a.143.143 0 00-.062-.012h-.273a.161.161 0 00-.119.273c2.74 2.909 5.373 2.039 6.584-.267l.006-.012c.166-.393.676-.916 1.115-.725a.16.16 0 00.154-.013.157.157 0 00.072-.135v-.152a.16.16 0 00-.094-.149zm2.791-3.227c-1.051-1.484-2.496-3.361-3.832-3.769a.095.095 0 01-.027-.011c-1.596-.827-4.779-.551-7.707.95a3.794 3.794 0 00-.926.776.16.16 0 00-.008.202.161.161 0 00.195.053c1.561-.679 3.34-1.061 4.803-1.077l.021.001c2.746.348 4.25 2.11 5.27 3.22.223.246.461.407.625.596.01.013.021.021.035.03.582.371 1.127 1.051 1.359 1.627.381.962.863 3.175.961 3.752.096.578 1.25.675.959-.961-.287-1.635-1.017-4.381-1.728-5.389zM97.067 255.481c-2.035 11.17 2.026 11.425 3.297 4.574 0-.004 0-.006.002-.01 2.282-17.236 9.621-41.302 17.73-53.243a.158.158 0 00.026-.106c-.241-2.52.011-4.797.769-8.574.594-2.966.109-4.392-.134-4.878-.024-.049-.069-.08-.124-.087s-.104.011-.142.052c-6.325 7.091-14.342 16.63-17.112 21.918-2.793 5.33-2.541 13.198 0 9.138 2.536-4.062 4.317-.761 2.793 3.809-1.522 4.564-5.077 16.241-7.105 27.407zM290.602 98.007c-.668.859-2.004 1.522-3.049 1.81a8.641 8.641 0 01-2.074.295.164.164 0 01-.045-.005l-.023-.005-.004-.001c-.951-.19-1.676-.432-2.219-1.408-.316-.571-1.859-1.025-1.494.159.824 2.617 3.488 3.093 5.631 2.713 2.424-.431 2.957-1.366 3.719-2.889l.004-.006c.031-.065.066-.118.102-.172l.016-.025c.111-.254.277-.484.479-.655.572-.477-.381-.668-1.043.189zM190.34 318.684a.184.184 0 00.003.052c.068.32.768 3.659.946 4.924.176 1.217.505 2.517.562 2.73a.155.155 0 00.026.057c.125.167.837 1.11 1.476 1.755a.143.143 0 00.07.041c1.275.375.273-1.715-.324-3.344-.665-1.809-1.429-5.143-1.717-6.09-.279-.944-.936-1.049-1.042-.125zm.49-116.952c-2.22-.929-6.65-2.09-9.06-1.708-1.863.295-4.946 1.574-7.357 1.715-.359.022-.541.253-.305.357 3.592 1.562 5.674.271 8.33-.083 2.487-.331 5.983.153 8.188.096.329-.009.475-.264.204-.377zm42.559-77.591a.16.16 0 00.005.198.159.159 0 00.192.046c2.987-1.341 5.496-3.037 8.385-4.739 1.4-.824 3.196-2.022 5.492-3.343 1.06-.609 3.115-1.65 3.845-2.675a.154.154 0 00.022-.135.153.153 0 00-.087-.106c-1.53-.706-3.115-1.784-3.654-3.205-.004-.011-.007-.021-.015-.032l-.302-.458a.156.156 0 00-.142-.073c-1.644.062-3.792 1.637-4.877 2.783-.047.05-.057.122-.026.184s.094.097.162.089c1.064-.12 2.586-.282 3.658-.213.067.004.124.05.143.117a.158.158 0 01-.06.176c-4.421 3.182-9.505 6.976-12.741 11.386zm25.349 16.62c-3.295-3.293-5.018-.166-9.897 5.837-3.3 4.063 0 5.077 2.791 5.33.606.057 1.077.025 1.459-.057a.18.18 0 01.057-.001c4.443.64 9.174 2.888 11.682 6.408 2.299 3.221 1.729 11.097-.762 14.21-1.016 1.27-4.316 7.106-1.52 5.331 2.789-1.777 5.832-4.57 7.865-7.107 2.029-2.539 3.299-7.36 2.537-10.153-1.092-3.988-4.158-7.248-7.754-9.577-.01-.005-.014-.01-.021-.016a7.094 7.094 0 00-2.648-1.501l-.023-.009a27.283 27.283 0 00-2.361-1.03.232.232 0 01-.043-.024c-2.428-1.928 1.406-4.875-1.362-7.641zM188.18 242.282c1.271 0 3.679-.253 5.963.764 2.284 1.012 6.091 3.425 8.377 4.697 2.284 1.267 2.284-1.272 0-3.681-1.174-1.241-1.142-4.571 3.046-7.616 2.473-1.797-1.267-2.411-4.312-2.411-3.466 0-8.249 1.273-12.564 4.188-4.151 2.804-1.776 4.059-.51 4.059zm42.855-27.68c-1.747 1.051-6.965-2.53-7.828-4.045-1.018-1.775-4.314-3.045-3.046-.252 1.733 3.811 6.038 8.834 10.659 6.854 1.777-.767 4.063-.51 5.33.504 1.269 1.018 3.555 3.556 4.57 3.809 1.355.34-1.133-4.767-1.476-5.297-1.566-2.433-3.986-5.553-6.649-6.887-1.522-.761-1.267.762-.76 2.035.346.858.055 2.765-.8 3.279zm-35.746-41.036c-3.411-1.328-5.075-1.08-3.556-.193l.006.003c4.816 3.047 9.515 7.742 11.673 10.532 1.978 2.561 3.421 4.188 4.564 6.345 1.145 2.158 1.446.486.826-1.837-2.03-7.617-7.17-12.376-13.513-14.85zm10.032 26.578c1.883-1.541 5.575-1.07 9.21 2.419.839.807 6.074 2.201 3.599-.127-4.185-3.934-3.427-7.993-6.471-6.217-3.049 1.775-6.221.381-6.982 1.646-1.364 2.275-4.566 4.571-5.582 6.603-1.016 2.029.252 4.06 2.538 6.346 2.286 2.285-.254 6.6.255 7.613.507 1.016 2.537 2.792 4.313 4.059 1.775 1.271 4.821 5.08 5.076 6.096.256 1.011 3.3 4.565 5.586 4.565 2.28 0 13.703 1.524 15.48 1.271 1.775-.256 2.029-2.029-.76-2.283-2.793-.255-7.614.254-9.139-2.285-1.526-2.541-1.269-6.092-1.526-7.107-.251-1.012-2.533-2.029-4.564-.256-2.03 1.779-3.808 1.271-5.839-.756-2.028-2.035-6.091-4.57-4.823-7.111 1.272-2.534 4.062-3.295 1.019-5.33-1.473-.977-3.039-2.338-3.048-4.252-.002-.947.482-1.56.805-2.393.261-.668.273-2.023.853-2.501zm-15.669-55.231c-.03.037-.013.018 0 0zm161.825 66.377a.172.172 0 00-.02.133.163.163 0 00.088.102c4.875 2.254 9.895 4.85 11.795 5.623.02.008.039.012.061.012 6.256.008 14.939 2.266 18.955 3.033a.147.147 0 00.1-.014c4.141-1.982 8.451-4.123 12.607-4.336a.158.158 0 00.15-.137.161.161 0 00-.102-.177c-2.324-.898-7.41-1.069-11.557.483l-.014.006c-2.096.569-7.764 1.643-6.461-.953.949-1.905 2.285-2.256 5.896-2.855 2.285-.383 4.758-.764 7.045-.193 1.521.385 1.902-1.522-1.143-2.662-3.047-1.144-9.52-2.287-12.943.57-3.428 2.854-5.492-3.201-7.969-12.335-2.473-9.141-6.5-24.023-7.264-27.832-.754-3.772-4.123-13.158-6.41-18.142a.165.165 0 00-.201-.086l-.861.289a.162.162 0 00-.105.189c1.709 7.433 3.777 19.124 4.535 25.175.762 6.092.57 13.516-.383 18.083-.938 4.522-2.44 10.729-5.799 16.024zm-45.784-4.03c-1.713 0-2.477-3.428-3.234-6.283-.766-2.855-.766-3.428-2.098-.761-1.332 2.666 2.477 5.9 2.098 7.613-.385 1.713 1.332 3.617 2.281 3.047.953-.57 4.189-1.521 6.092-2.094 1.906-.571 6.477-2.285 8.756-2.666 2.287-.381 1.904-1.52.951-2.094-.951-.57-.762-2.284 1.717-4.759 2.473-2.475 4.188-1.331 6.854-2.095 2.664-.761-.574-4.569-1.143-6.659-.574-2.094 0-5.714-1.908-6.474-1.902-.761-6.471-2.475-9.516-2.666-3.045-.19.574 3.235 2.477 5.33 1.902 2.094 5.328 4.758 2.855 5.141-2.473.379-4.566 2.473-6.094 5.521-1.521 3.047-4.375 0-6.09-1.526-1.713-1.522-2.283-2.854-3.617-2.092s.51 1.843 1.713 3.045c2.477 2.475 3.619 5.711 3.426 8.188-.19 2.475-3.805 2.284-5.52 2.284zm29.985-3.01c-.057.03-.088.085-.086.147s.037.116.094.143l5.426 2.502a.16.16 0 00.137 0c.553-.261 4.27-2.154 5.576-6.692 1.41-4.908 1.18-8.178.939-11.994-.232-3.815-1.645-4.906.006-8.725 3.584-8.322 1.695-16.346-.113-24.715-.338-1.581-3.936-20.066-4.832-19.987l-1.924.165a.16.16 0 00-.142.203c2.791 10.298 4.178 20.752 3.01 27.254-.967 5.371-3.062 5.634-2.588 9.995.469 4.361 1.879 6.725 2.113 9.996.238 3.271 0 4.905-.703 7.268-.705 2.361-3.531 4.362-2.826 7.632.69 3.192-.304 4.787-4.087 6.808zm-46.483-43.186c3.045-.76 5.838-2.282 6.09-4.059.254-1.776 0-2.285-2.537-2.285s-6.346-1.523-7.355-4.314c-1.016-2.791-2.037-2.284-4.826-7.106-2.793-4.824-5.334-9.899-6.602-11.422-1.268-1.523-2.283-4.314-4.057-3.554-1.541.661-1.936.559-1.52 2.832l.002.012c.137 1.259.504 2.54.756 3.708.762 3.565-.088 7.831 1.514 11.081 2.887 5.868 8.004 9.144 7.238 18.854-.176 2.281-.867 4.976-2.355 6.837-1.646 2.056-3.15 3.915-4.875 5.916-1.75 2.03-4.102 4.243-6.713 5.177-1.652.591-7.748.131-7.998 2.708-.227 2.357 4.77 2.447 4.061 5.595-.723 3.19-5.842 2.888-7.994 1.739-2.263-1.213-3.428-4.599-6.291-3.545a.156.156 0 00-.104.124.157.157 0 00.055.152c1.299 1.092 6.419 7.878 7.326 8.491 2.428 1.64 6.998 6.019 11.375.307 2.223-2.895 3.285-5.095 6.09-7.422 2.125-1.759 3.527-2.945 5.523-5.71.926-1.283 2.092-2.51 3.195-3.722.998-1.096 2.371-3.058 2.893-4.464 1.053-2.82.416-3.287.012-4.872-.006-.015-.006-.028-.006-.043.057-3.371.824-2.983 2.535-5.428 1.775-2.54 1.523-4.824 4.568-5.587zm117.844 260.598c.629.233 1.197-.163-1.012-2.243-.842-.79-2.625-2.106-2.299-.937.325 1.167 1.969 2.684 3.311 3.18zM287.801 286.826c-2.287 1.144-4.572 5.335-7.234 10.663a29.64 29.64 0 00-.697 1.506l-.01.021c-.252.414-.525.908-.816 1.519-4.641 9.671-9.516 22.078-13.705 26.649-4.189 4.567-7.994 9.898-7.994 14.466s1.904 3.807 3.426 1.525c1.521-2.286 4.188-1.525 5.711-7.619 1.086-4.349 3.535-9.282 5.539-12.302a.164.164 0 01.203-.06c.07.034.109.112.088.19-3.627 13.557-7.012 27.598-8.496 31.21-2.666 6.472 3.045 3.427 4.566-1.905 1.527-5.327 2.666-9.139 4.57-13.325s7.996-12.181 11.426-17.131c3.424-4.949 11.041-18.274 14.844-23.221 3.807-4.951-1.906-7.617-3.803-10.664-1.907-3.044-5.339-2.664-7.618-1.522zm65.894 15.833c-2.209-8.825-11.711-18.007-25.375-21.876a.137.137 0 01-.057-.03c-1.486-1.215-3.059-1.832-4.676-1.16-4.568 1.905-10.283 6.092-12.564 9.519-2.285 3.426-9.896 10.28-11.422 14.467-1.52 4.189-7.994 18.655-13.326 26.649-5.328 7.995-10.277 17.135-13.324 22.08-3.043 4.95-6.092 8.38-11.803 11.423-3.914 2.09-8.375 5.708-14.846 9.52-5.916 3.479-18.164 5.503-19.417 9.898-1.523 5.328 1.144 9.896 10.663 9.138 9.514-.765 17.493-4.026 25.887-9.898 7.611-5.333 14.463-11.042 17.131-16.373 4.113-8.229 5.33-13.325 7.234-19.035 1.902-5.708 1.902-8.377 3.045-13.324 1.197-5.17 1.902-11.422 3.807-11.801 1.904-.383 1.143 4.567 0 12.182-1.141 7.613-.381 16.372.381 25.508.762 9.137.385 21.697 3.049 32.742 2.66 11.039 6.467 22.84 8.754 29.312 2.283 6.473 9.137 18.654 11.422 22.08 2.281 3.43 4.945 6.475 10.658 1.901 5.709-4.563 10.66-9.896 9.521-11.418-1.148-1.521-4.951-1.907-8.758.381-3.811 2.283-10.66 1.523-7.617 0 3.051-1.521 11.041-9.137 13.709-9.897 2.666-.761 4.947-9.899 0-5.713-4.949 4.186-8.754 9.892-12.176 11.421a.05.05 0 01-.016.005c-4.4 1.486-3.006-5.504-1.293-11.779 1.711-6.281 2.854-22.841 2.854-29.125 0-6.282-4.568-6.852-6.85-6.282-.959.24-2.389 1.733-3.906 3.16a.15.15 0 01-.102.043c-.684.036-1.523.118-2.496.197-4.568.383-5.971-3.446-7.238-11.037-.758-4.569-1.521-7.233-2.662-12.947-1.145-5.711-3.428-10.968-3.428-20.177 0-7.614 2.668-16.367 6.471-23.223 3.809-6.854 7.5-12.847 9.9-16.752 2.115-3.436 3.678-5.953 5.074-8.577a.095.095 0 01.021-.03c3.67-4.23 6.355-5.731 10.352-3.734 4.57 2.286 9.139 8.563 11.426 13.704 2.283 5.145 5.137 21.131 8.562 35.405 3.43 14.273 9.707 24.552 11.992 22.272 2.283-2.285-.57-11.991-3.996-18.847-3.426-6.852-5.141-12.563-6.854-19.414-1.711-6.854 4.567-11.422 2.289-20.558zm-82.265 86.584c-6.434 11.253-14.465 17.509-28.172 22.075-13.025 4.343-21.319 3.808-9.896 10.659 11.421 6.854 18.271 9.14 30.454 7.616 12.184-1.522 20.562-6.092 22.082-17.512 1.523-11.424-2.285-28.85-2.285-42.644-.002-7.611-6.092 9.143-12.183 19.806zm33.884-161.238c1.451-2.28.379-3.993-1.334-1.901-1.711 2.092-5.33 5.521-7.615 5.521s-13.703 3.236-14.848 3.993c-1.143.764-3.043 2.861-2.666 5.526.385 2.662 3.619 1.52 6.092-1.145 2.477-2.668 5.523-4.76 8.568-5.521s9.139-2.284 11.803-6.473zm-161.875 44.106a.162.162 0 00-.044-.211c-4.869-3.682-11.396-15.948-14.232-20.353a.163.163 0 00-.213-.055c-15.657 8.31-6.891 23.027-.926 26.265 6.591 3.578 12.898-1.346 15.415-5.646zm3.498-38.584c1.052 1.399 4.348 4.569 4.877 5.074a.156.156 0 00.166.036c3.194-1.122 6.005-1.682 6.952-1.682.948 0-.096-4.436-1.524-5.521-2.188-1.666-3.553-3.578-4.566-5.472-.556-1.038-.353-1.532-.036-2.636.237-.838.598-1.922.127-2.744-.379-.666-1.44-2.184-.283-2.156 1.333.031 2.791.125 4.092.158 1.346.031 3.318-.005 3.807-1.234.604-1.523.417-2.916-.661-3.521l-.012-.006c-.14-.065-2.906-1.362-4.18-1.807-1.651-.57-4.695-1.711-6.474-2.475-1.201-.514-2.192-1.719-2.689-3.041l-.006-.02c-.308-1.297-.294-2.904.981-3.125a1.49 1.49 0 00.202-.051l.021-.005c.959-.175 1.885.083 2.252.276 1.619.857 3.427 1.967 4.572 2.539 1.141.572 3.897 2.188 5.521 3.238.795.516 1.581 1.16 1.755 2.217v.033c-.036.886.531.533.906-.539.716-2.044-.695-3.68-3.234-5.33-.574-.372-3.456-1.623-4.759-2.094-1.587-.57-4.046-1.903-4.188-2.806-.109-.68 0-.953 1.141-1.144 2.286-.38 5.9-.618 7.611-.998a2.639 2.639 0 00.388-.114c2.597-.511 3.614-1.638 4.182-3.156a4.923 4.923 0 00.279-2.126v-.016c.013-1.275-.825-2.654-2.94-3.346a238.73 238.73 0 00-6.097-1.903c-1.903-.57-3.614-.649-1.138-2.475 1.204-.887 2.044-2.39 1.458-3.807-.56-1.35-1.391-3.073-1.794-3.897a.162.162 0 00-.306.045c-.627 3.752-4.178 6.104-6.719 4.936a.16.16 0 00-.162.015.163.163 0 00-.067.146c.146 1.722.16 5.521.16 7.337a.163.163 0 00.288.102c.622-.766 1.694-.929 4.094-.5 2.475.444 4.607.95 6.095 1.144 1.472.189 6.374.474 6.279 3.995.006-.003.012-.005.018-.01-.149.995-.707 2.01-2.363 2.01-.279 0-.563-.011-.845-.026a.163.163 0 01-.045-.008 1.123 1.123 0 00-.381-.062c-1.141 0-3.146-.625-4.949-1.142-1.334-.378-3.047-.57-4.761-.57-1.449 0-2.623-.814-3.185-2.101a.16.16 0 00-.176-.095.163.163 0 00-.134.148c-.104 1.428-.15 2.862-.224 4.294-.046 1.02-.156 1.873-.23 2.897a21.81 21.81 0 01-.373 2.792c-.306 1.448-.675 2.81-.675 4.296 0 .176.018.338.051.489.002.015.004.027.004.042-.065 1.327-.094 2.889-.008 4.182.189 2.855 0 10.658-.38 14.847-.38 4.191 1.144 4.952 2.285 6.473zm1.903-22.652c.761-.19 3.809.758 6.854 1.902 1.135.43 2.209.936 3.126 1.749.47.413.733.847.739 1.491.008.479-.202 1.436-.82 1.52-2.195.301-4.336-.811-6.472-1.146-2.473-.376-3.047-1.327-3.428-2.663-.38-1.327-.758-2.663.001-2.853zm1.142 8.471c.69.019 1.491.965 1.723 1.861.229.899-.26 1.882-.961 2.232-.762.379-2.663 1.331-4.141-.859-1.561-2.318 1.404-3.287 3.379-3.234zm17.269 82.362a.156.156 0 00-.111-.063c-2.596-.302-4.783 5.23-4.597 8.025.387 5.14 2.286 15.352 7.617 30.329 5.33 14.976 13.198 25.127 17.256 30.202 4.065 5.077 18.784 18.316 24.874 24.365 6.095 6.051 9.393 3.554.256-4.821-9.135-8.376-17.769-17.767-21.064-23.603-3.302-5.841-4.313-10.661-1.522-12.186 2.789-1.52 6.596-1.269 12.939 2.285 6.348 3.554 31.984 12.181 37.06 10.657 5.077-1.521 10.154-10.911 3.046-13.703-7.109-2.789-16.753-6.09-23.099-6.09-6.344 0-11.93-.511-16.75-4.313-5.861-4.63-9.874-10.213-10.986-11.845a.155.155 0 00-.183-.063.158.158 0 00-.111.159l.113 3.877c0 .002 0 .004.002.006.251 3.805-.509 7.358-1.02 8.88-.282.852-1.362 1.309-2.438 1.319a.168.168 0 01-.055-.01c-.507-.177-1.404-.753-1.564-.993-.192-.284-.096-2.572-.096-3.618 0-1.044-.478-2.949-.381-4.474.096-1.518-.379-4.187-.477-5.613-.099-1.431 0-2.854-.099-4.569-.09-1.716-.758-5.138-1.138-6.374-.385-1.238-1.532-.954-1.333.281.571 3.523 1.333 6.476 1.333 9.138 0 2.669.667 6.475.757 8.564.093 1.935-.104 5.498-.09 6.191.09 1.9-4.189 1.999-4.572-.605-.144-.979-.061-2.034-.119-2.85v-.011c-.028-2.651.032-5.938-.45-7.384-.571-1.716-1.144-4.188-1.144-5.903 0-1.713-.476-5.043-.758-6.664-.415-2.332-1.512-1.534-1.621-.774v.03c.1 2.196 1.048 7.793 1.335 9.311.286 1.526 1.424 5.329 1.899 7.045.475 1.695.199 2.086-.731 2.927a.153.153 0 01-.062.035l-.266.076a.144.144 0 01-.077.003c-1.4-.273-2.801-1.423-3.334-3.201-.762-2.537-2.031-5.329-3.555-10.406-1.521-5.077-3.554-11.165-4.315-13.958-.367-1.363-.681-7.256-.339-9.489a.146.146 0 00-.03-.122zm-49.001 10.633c-3.156 5.023-10.523 15.223-9.384 16.239 1.141 1.014 4.923.148 6.218-1.147 2.41-2.411 7.359-14.971 10.786-21.442 3.196-6.031 8.152-20.107 8.812-21.996.019-.051.011-.102-.02-.146s-.075-.068-.128-.069c-4.553-.152-12.212-4.92-14.553-9.735a.16.16 0 00-.103-.085.154.154 0 00-.132.021c-2.368 1.538-4.97 6.946-5.931 12.085-.767 4.063.76 3.808 3.17-.125 2.676-4.369 3.296-1.526 2.156 1.142-1.139 2.663-5.933 10.283-7.105 15.99-1.014 4.949-.434 9.445 2.537 3.937l.004-.008c2.868-4.768 7.548-2.633 3.681 5.325l-.008.014zm65.562-8.811c-.66.698.424 2.186.684 2.841.004.012.01.021.017.032.46.669 1.244 1.933 2.26 1.604 1.137-.366 1.151-1.627.539-2.4l-.396-.503-.002-.004c-.175-.237-.606-.678-.831-.975-.008-.009-.012-.015-.019-.021-.559-.523-1.548-1.318-2.252-.574zm194.725 114.386c1.777 1.017 4.311.764 3.299-.25-1.018-1.018-2.467-6.156-3.555-7.361-2.285-2.538-6.6 3.045-5.588 4.313 1.022 1.271 4.067 2.283 5.844 3.298zm-124.236-97.205c-9.138 5.71-21.704 13.324-27.035 15.228-5.328 1.899-17.132 4.19-18.656-3.427-1.52-7.613-1.899-16.749-6.854-23.604-4.945-6.851-9.896-14.848-11.417-20.178-1.523-5.331-6.472-5.712-3.425.761 3.046 6.471 4.058 7.358 6.091 11.167 2.028 3.808 3.806 7.614 3.806 11.168s-.255 4.567 1.012 8.374c1.272 3.812 2.543 8.22 2.793 10.502.202 1.796-.969 2.475-1.481 2.682a.157.157 0 00-.096.117.15.15 0 00.04.145c7.141 7.531 12.293 13.676 23.998 8.765 11.808-4.952 13.709-3.047 22.087-6.472 8.369-3.427 18.272-20.941 9.137-15.228z"/></svg>