<svg xmlns="http://www.w3.org/2000/svg" width="560" height="560" viewBox="0 0 560 560"><path fill="#E7E8E8" d="M315.583 265.638c-13.719 4.93-22.937 21.329-23.364 45.765h-7.182c0-22.187 3.858-29.26 13.934-57.233 5.145-13.183 2.036-29.474-6.967-44.479-3.322-5.359-7.396-10.182-12.004-15.434-4.608 5.252-8.682 10.075-12.004 15.434-9.003 15.005-12.111 31.296-6.967 44.479 10.075 27.974 13.934 35.047 13.934 57.233h-7.181c-.429-24.437-9.646-40.835-23.365-45.765-6.002-2.25-13.826-1.179-21.007 6.216-8.896 9.11-11.468 34.297 14.576 39.12-2.787-4.073-2.465-13.076 3.001-16.184 4.18-2.145 9.003-1.287 11.146.535 3.644 2.144 7.074 9.003 7.074 16.077h-12.326v13.825h25.616c-.322 7.182-4.18 12.755-11.361 15.863.857 3 5.252 9.109 11.254 8.681 1.179 6.431 2.25 10.075 7.609 15.97 5.359-5.895 6.431-9.539 7.609-15.97 6.002.429 10.396-5.681 11.254-8.681-7.181-3.108-11.039-8.682-11.361-15.863h25.616v-13.825h-12.325c0-7.074 3.43-13.934 7.073-16.077 2.144-1.822 6.967-2.68 11.146-.535 5.466 3.107 5.788 12.11 3.001 16.184 26.044-4.823 23.472-30.01 14.576-39.12-7.179-7.395-15.003-8.466-21.005-6.216zM7.61 69.772c6.002.429 10.396-5.68 11.253-8.681-7.181-3.108-11.04-8.681-11.361-15.862h25.615V31.403H20.793c0-7.074 3.43-13.934 7.074-16.077 2.144-1.822 6.966-2.679 11.146-.536 5.466 3.108 5.788 12.111 3.001 16.184C62.219 27.233 65.196 11.239 61.364 0H19.578c-4.47 7.908-7.134 18.541-7.359 31.403H5.038C5.038 18.088 6.43 10.213 9.719 0H0v85.742c5.359-5.894 6.431-9.539 7.61-15.97zM517.986 30.975c-2.786-4.073-2.465-13.076 3.002-16.184 4.18-2.144 9.002-1.286 11.146.536 3.644 2.144 7.073 9.003 7.073 16.077h-12.325V45.23h25.615c-.321 7.181-4.18 12.754-11.361 15.862.857 3.001 5.252 9.11 11.254 8.681 1.18 6.431 2.251 10.075 7.609 15.97V0h-9.719c3.289 10.213 4.682 18.088 4.682 31.403h-7.181c-.224-12.862-2.887-23.495-7.358-31.403h-41.786c-3.832 11.239-.855 27.233 19.349 30.975zM35.583 545.639c-6.498 2.335-11.982 7.246-16.005 14.361h41.786c-1.107-3.248-2.779-6.103-4.774-8.146-7.181-7.395-15.005-8.466-21.007-6.215zM12.004 489.691C8.682 484.332 4.609 479.51 0 474.258V560h9.719c2.191-6.805 5.223-14.645 9.251-25.83 5.145-13.183 2.037-29.474-6.966-44.479zM524.418 545.639c-6.002-2.251-13.826-1.18-21.008 6.216-1.994 2.043-3.666 4.897-4.773 8.146h41.786c-4.023-7.116-9.508-12.027-16.005-14.362zM560 474.258c-4.608 5.252-8.681 10.074-12.004 15.434-9.002 15.005-12.11 31.296-6.966 44.479 4.028 11.186 7.06 19.025 9.251 25.83H560v-85.743z"/></svg>