<?xml version="1.0" standalone="no"?>
<!DOCTYPE svg PUBLIC "-//W3C//DTD SVG 20010904//EN"
 "http://www.w3.org/TR/2001/REC-SVG-20010904/DTD/svg10.dtd">
<svg version="1.0" xmlns="http://www.w3.org/2000/svg"
 width="500.000000pt" height="500.000000pt" viewBox="0 0 500.000000 500.000000"
 preserveAspectRatio="xMidYMid meet">
<metadata>
Created by potrace 1.11, written by Peter Selinger 2001-2013
</metadata>
<g transform="translate(0.000000,500.000000) scale(0.100000,-0.100000)"
fill="#000000" stroke="none">
<path d="M0 2500 l0 -2500 2500 0 2500 0 0 2500 0 2500 -2500 0 -2500 0 0
-2500z m2665 2021 l150 -69 3 -166 2 -166 40 -20 c21 -11 44 -20 50 -20 6 0
10 25 10 58 l0 58 112 52 112 52 158 -72 158 -73 0 -165 0 -166 50 -21 50 -21
0 61 0 62 112 51 112 51 156 -72 155 -72 3 -516 c1 -285 0 -517 -3 -517 -3 0
-241 -63 -530 -140 l-526 -140 -114 52 -115 52 0 82 0 81 -156 73 -157 72
-151 -69 -151 -69 -3 -447 -2 -447 125 -60 c201 -94 167 -93 342 -14 l152 69
3 154 3 155 195 52 c692 184 856 227 865 227 6 0 58 -22 118 -49 l107 -48 -2
-640 -3 -639 -790 -364 c-434 -199 -797 -363 -805 -363 -8 0 -370 164 -805
364 l-790 363 0 1363 0 1363 158 73 158 73 107 -49 107 -49 3 -65 3 -64 49 21
50 21 0 166 0 166 160 72 160 73 108 -48 107 -49 3 -62 c2 -34 7 -62 13 -62 5
0 28 9 49 20 l40 20 2 165 3 166 150 69 c83 38 157 70 165 70 8 0 83 -31 165
-69z"/>
</g>
</svg>
